%TF.GenerationSoftware,KiCad,Pcbnew,7.0.8*%
%TF.CreationDate,2024-01-29T19:48:48+09:00*%
%TF.ProjectId,DAC8bit,44414338-6269-4742-9e6b-696361645f70,rev?*%
%TF.SameCoordinates,Original*%
%TF.FileFunction,Legend,Bot*%
%TF.FilePolarity,Positive*%
%FSLAX46Y46*%
G04 Gerber Fmt 4.6, Leading zero omitted, Abs format (unit mm)*
G04 Created by KiCad (PCBNEW 7.0.8) date 2024-01-29 19:48:48*
%MOMM*%
%LPD*%
G01*
G04 APERTURE LIST*
G04 Aperture macros list*
%AMHorizOval*
0 Thick line with rounded ends*
0 $1 width*
0 $2 $3 position (X,Y) of the first rounded end (center of the circle)*
0 $4 $5 position (X,Y) of the second rounded end (center of the circle)*
0 Add line between two ends*
20,1,$1,$2,$3,$4,$5,0*
0 Add two circle primitives to create the rounded ends*
1,1,$1,$2,$3*
1,1,$1,$4,$5*%
G04 Aperture macros list end*
%ADD10C,2.500000*%
%ADD11C,1.600000*%
%ADD12HorizOval,1.600000X0.000000X0.000000X0.000000X0.000000X0*%
%ADD13O,1.600000X1.600000*%
%ADD14R,1.700000X1.700000*%
%ADD15O,1.700000X1.700000*%
G04 APERTURE END LIST*
%LPC*%
D10*
%TO.C,TP3*%
X159210000Y-123502130D03*
%TD*%
D11*
%TO.C,R28*%
X178259924Y-106792871D03*
D12*
X175720077Y-113977130D03*
%TD*%
D11*
%TO.C,R6*%
X152859924Y-95362871D03*
D13*
X152859924Y-102982871D03*
%TD*%
D11*
%TO.C,R11*%
X147779924Y-106792871D03*
D12*
X145240077Y-113977130D03*
%TD*%
D11*
%TO.C,R8*%
X157939924Y-95362871D03*
D13*
X157939924Y-102982871D03*
%TD*%
D11*
%TO.C,R1*%
X140159924Y-95362871D03*
D13*
X140159924Y-102982871D03*
%TD*%
D11*
%TO.C,R24*%
X185879924Y-95362871D03*
D13*
X185879924Y-102982871D03*
%TD*%
D11*
%TO.C,R20*%
X175719924Y-95362871D03*
D13*
X175719924Y-102982871D03*
%TD*%
D11*
%TO.C,R16*%
X160479924Y-106792871D03*
D12*
X157940077Y-113977130D03*
%TD*%
D11*
%TO.C,R7*%
X155399924Y-95362871D03*
D13*
X155399924Y-102982871D03*
%TD*%
D11*
%TO.C,R3*%
X145239924Y-95362871D03*
D13*
X145239924Y-102982871D03*
%TD*%
D10*
%TO.C,TP2*%
X173180077Y-123502130D03*
%TD*%
D11*
%TO.C,R27*%
X175719924Y-106792871D03*
D12*
X173180077Y-113977130D03*
%TD*%
D10*
%TO.C,TP1*%
X145240077Y-123502130D03*
%TD*%
D11*
%TO.C,R23*%
X183339924Y-95362871D03*
D13*
X183339924Y-102982871D03*
%TD*%
D11*
%TO.C,R30*%
X183339924Y-106792871D03*
D12*
X180800077Y-113977130D03*
%TD*%
D11*
%TO.C,R9*%
X142699924Y-106792871D03*
D12*
X140160077Y-113977130D03*
%TD*%
D11*
%TO.C,R18*%
X170639924Y-95362871D03*
D13*
X170639924Y-102982871D03*
%TD*%
D11*
%TO.C,R4*%
X147779924Y-95362871D03*
D13*
X147779924Y-102982871D03*
%TD*%
D11*
%TO.C,R32*%
X188419924Y-106792871D03*
D12*
X185880077Y-113977130D03*
%TD*%
D11*
%TO.C,R21*%
X178259924Y-95362871D03*
D13*
X178259924Y-102982871D03*
%TD*%
D11*
%TO.C,R5*%
X150319924Y-95362871D03*
D13*
X150319924Y-102982871D03*
%TD*%
D11*
%TO.C,R14*%
X155399924Y-106792871D03*
D12*
X152860077Y-113977130D03*
%TD*%
D11*
%TO.C,R15*%
X157939924Y-106792871D03*
D12*
X155400077Y-113977130D03*
%TD*%
D14*
%TO.C,J1*%
X137620000Y-82445000D03*
D15*
X137620000Y-79905000D03*
X140160000Y-82445000D03*
X140160000Y-79905000D03*
X142700000Y-82445000D03*
X142700000Y-79905000D03*
X145240000Y-82445000D03*
X145240000Y-79905000D03*
X147780000Y-82445000D03*
X147780000Y-79905000D03*
X150320000Y-82445000D03*
X150320000Y-79905000D03*
X152860000Y-82445000D03*
X152860000Y-79905000D03*
X155400000Y-82445000D03*
X155400000Y-79905000D03*
X157940000Y-82445000D03*
X157940000Y-79905000D03*
X160480000Y-82445000D03*
X160480000Y-79905000D03*
X163020000Y-82445000D03*
X163020000Y-79905000D03*
X165560000Y-82445000D03*
X165560000Y-79905000D03*
X168100000Y-82445000D03*
X168100000Y-79905000D03*
X170640000Y-82445000D03*
X170640000Y-79905000D03*
X173180000Y-82445000D03*
X173180000Y-79905000D03*
X175720000Y-82445000D03*
X175720000Y-79905000D03*
X178260000Y-82445000D03*
X178260000Y-79905000D03*
X180800000Y-82445000D03*
X180800000Y-79905000D03*
X183340000Y-82445000D03*
X183340000Y-79905000D03*
X185880000Y-82445000D03*
X185880000Y-79905000D03*
%TD*%
D11*
%TO.C,R31*%
X185879924Y-106792871D03*
D12*
X183340077Y-113977130D03*
%TD*%
D11*
%TO.C,R13*%
X152859924Y-106792871D03*
D12*
X150320077Y-113977130D03*
%TD*%
D11*
%TO.C,R22*%
X180799924Y-95362871D03*
D13*
X180799924Y-102982871D03*
%TD*%
D11*
%TO.C,R25*%
X170639924Y-106792871D03*
D12*
X168100077Y-113977130D03*
%TD*%
D11*
%TO.C,R26*%
X173179924Y-106792871D03*
D12*
X170640077Y-113977130D03*
%TD*%
D11*
%TO.C,R19*%
X173179924Y-95362871D03*
D13*
X173179924Y-102982871D03*
%TD*%
D11*
%TO.C,R29*%
X180799924Y-106792871D03*
D12*
X178260077Y-113977130D03*
%TD*%
D11*
%TO.C,R2*%
X142699924Y-95362871D03*
D13*
X142699924Y-102982871D03*
%TD*%
D11*
%TO.C,R10*%
X145239924Y-106792871D03*
D12*
X142700077Y-113977130D03*
%TD*%
D11*
%TO.C,R17*%
X168099924Y-95362871D03*
D13*
X168099924Y-102982871D03*
%TD*%
D11*
%TO.C,R12*%
X150319924Y-106792871D03*
D12*
X147780077Y-113977130D03*
%TD*%
%LPD*%
M02*
