%TF.GenerationSoftware,KiCad,Pcbnew,7.0.8*%
%TF.CreationDate,2024-01-29T19:48:48+09:00*%
%TF.ProjectId,DAC8bit,44414338-6269-4742-9e6b-696361645f70,rev?*%
%TF.SameCoordinates,Original*%
%TF.FileFunction,Copper,L1,Top*%
%TF.FilePolarity,Positive*%
%FSLAX46Y46*%
G04 Gerber Fmt 4.6, Leading zero omitted, Abs format (unit mm)*
G04 Created by KiCad (PCBNEW 7.0.8) date 2024-01-29 19:48:48*
%MOMM*%
%LPD*%
G01*
G04 APERTURE LIST*
G04 Aperture macros list*
%AMHorizOval*
0 Thick line with rounded ends*
0 $1 width*
0 $2 $3 position (X,Y) of the first rounded end (center of the circle)*
0 $4 $5 position (X,Y) of the second rounded end (center of the circle)*
0 Add line between two ends*
20,1,$1,$2,$3,$4,$5,0*
0 Add two circle primitives to create the rounded ends*
1,1,$1,$2,$3*
1,1,$1,$4,$5*%
G04 Aperture macros list end*
%TA.AperFunction,ComponentPad*%
%ADD10C,2.500000*%
%TD*%
%TA.AperFunction,ComponentPad*%
%ADD11C,1.600000*%
%TD*%
%TA.AperFunction,ComponentPad*%
%ADD12HorizOval,1.600000X0.000000X0.000000X0.000000X0.000000X0*%
%TD*%
%TA.AperFunction,ComponentPad*%
%ADD13O,1.600000X1.600000*%
%TD*%
%TA.AperFunction,ComponentPad*%
%ADD14R,1.700000X1.700000*%
%TD*%
%TA.AperFunction,ComponentPad*%
%ADD15O,1.700000X1.700000*%
%TD*%
%TA.AperFunction,Conductor*%
%ADD16C,0.400000*%
%TD*%
%TA.AperFunction,Conductor*%
%ADD17C,0.250000*%
%TD*%
G04 APERTURE END LIST*
D10*
%TO.P,TP3,1,1*%
%TO.N,GND*%
X159210000Y-123502130D03*
%TD*%
D11*
%TO.P,R28,1*%
%TO.N,Net-(R21-Pad2)*%
X178259924Y-106792871D03*
D12*
%TO.P,R28,2*%
%TO.N,Net-(R20-Pad2)*%
X175720077Y-113977130D03*
%TD*%
D11*
%TO.P,R6,1*%
%TO.N,axis_y3*%
X152859924Y-95362871D03*
D13*
%TO.P,R6,2*%
%TO.N,Net-(R13-Pad1)*%
X152859924Y-102982871D03*
%TD*%
D11*
%TO.P,R11,1*%
%TO.N,Net-(R11-Pad1)*%
X147779924Y-106792871D03*
D12*
%TO.P,R11,2*%
%TO.N,Net-(R10-Pad1)*%
X145240077Y-113977130D03*
%TD*%
D11*
%TO.P,R8,1*%
%TO.N,axis_y1*%
X157939924Y-95362871D03*
D13*
%TO.P,R8,2*%
%TO.N,Net-(R15-Pad1)*%
X157939924Y-102982871D03*
%TD*%
D11*
%TO.P,R1,1*%
%TO.N,axis_y8*%
X140159924Y-95362871D03*
D13*
%TO.P,R1,2*%
%TO.N,Net-(R1-Pad2)*%
X140159924Y-102982871D03*
%TD*%
D11*
%TO.P,R24,1*%
%TO.N,axis_x1*%
X185879924Y-95362871D03*
D13*
%TO.P,R24,2*%
%TO.N,Net-(R24-Pad2)*%
X185879924Y-102982871D03*
%TD*%
D11*
%TO.P,R20,1*%
%TO.N,axis_x5*%
X175719924Y-95362871D03*
D13*
%TO.P,R20,2*%
%TO.N,Net-(R20-Pad2)*%
X175719924Y-102982871D03*
%TD*%
D11*
%TO.P,R16,1*%
%TO.N,GND*%
X160479924Y-106792871D03*
D12*
%TO.P,R16,2*%
%TO.N,Net-(R15-Pad1)*%
X157940077Y-113977130D03*
%TD*%
D11*
%TO.P,R7,1*%
%TO.N,axis_y2*%
X155399924Y-95362871D03*
D13*
%TO.P,R7,2*%
%TO.N,Net-(R14-Pad1)*%
X155399924Y-102982871D03*
%TD*%
D11*
%TO.P,R3,1*%
%TO.N,axis_y6*%
X145239924Y-95362871D03*
D13*
%TO.P,R3,2*%
%TO.N,Net-(R10-Pad1)*%
X145239924Y-102982871D03*
%TD*%
D10*
%TO.P,TP2,1,1*%
%TO.N,Net-(R17-Pad2)*%
X173180077Y-123502130D03*
%TD*%
D11*
%TO.P,R27,1*%
%TO.N,Net-(R20-Pad2)*%
X175719924Y-106792871D03*
D12*
%TO.P,R27,2*%
%TO.N,Net-(R19-Pad2)*%
X173180077Y-113977130D03*
%TD*%
D10*
%TO.P,TP1,1,1*%
%TO.N,Net-(R1-Pad2)*%
X145240077Y-123502130D03*
%TD*%
D11*
%TO.P,R23,1*%
%TO.N,axis_x2*%
X183339924Y-95362871D03*
D13*
%TO.P,R23,2*%
%TO.N,Net-(R23-Pad2)*%
X183339924Y-102982871D03*
%TD*%
D11*
%TO.P,R30,1*%
%TO.N,Net-(R23-Pad2)*%
X183339924Y-106792871D03*
D12*
%TO.P,R30,2*%
%TO.N,Net-(R22-Pad2)*%
X180800077Y-113977130D03*
%TD*%
D11*
%TO.P,R9,1*%
%TO.N,Net-(R10-Pad2)*%
X142699924Y-106792871D03*
D12*
%TO.P,R9,2*%
%TO.N,Net-(R1-Pad2)*%
X140160077Y-113977130D03*
%TD*%
D11*
%TO.P,R18,1*%
%TO.N,axis_x7*%
X170639924Y-95362871D03*
D13*
%TO.P,R18,2*%
%TO.N,Net-(R18-Pad2)*%
X170639924Y-102982871D03*
%TD*%
D11*
%TO.P,R4,1*%
%TO.N,axis_y5*%
X147779924Y-95362871D03*
D13*
%TO.P,R4,2*%
%TO.N,Net-(R11-Pad1)*%
X147779924Y-102982871D03*
%TD*%
D11*
%TO.P,R32,1*%
%TO.N,GND*%
X188419924Y-106792871D03*
D12*
%TO.P,R32,2*%
%TO.N,Net-(R24-Pad2)*%
X185880077Y-113977130D03*
%TD*%
D11*
%TO.P,R21,1*%
%TO.N,axis_x4*%
X178259924Y-95362871D03*
D13*
%TO.P,R21,2*%
%TO.N,Net-(R21-Pad2)*%
X178259924Y-102982871D03*
%TD*%
D11*
%TO.P,R5,1*%
%TO.N,axis_y4*%
X150319924Y-95362871D03*
D13*
%TO.P,R5,2*%
%TO.N,Net-(R12-Pad1)*%
X150319924Y-102982871D03*
%TD*%
D11*
%TO.P,R14,1*%
%TO.N,Net-(R14-Pad1)*%
X155399924Y-106792871D03*
D12*
%TO.P,R14,2*%
%TO.N,Net-(R13-Pad1)*%
X152860077Y-113977130D03*
%TD*%
D11*
%TO.P,R15,1*%
%TO.N,Net-(R15-Pad1)*%
X157939924Y-106792871D03*
D12*
%TO.P,R15,2*%
%TO.N,Net-(R14-Pad1)*%
X155400077Y-113977130D03*
%TD*%
D14*
%TO.P,J1,1,Pin_1*%
%TO.N,unconnected-(J1-Pin_1-Pad1)*%
X137620000Y-82445000D03*
D15*
%TO.P,J1,2,Pin_2*%
%TO.N,unconnected-(J1-Pin_2-Pad2)*%
X137620000Y-79905000D03*
%TO.P,J1,3,Pin_3*%
%TO.N,unconnected-(J1-Pin_3-Pad3)*%
X140160000Y-82445000D03*
%TO.P,J1,4,Pin_4*%
%TO.N,unconnected-(J1-Pin_4-Pad4)*%
X140160000Y-79905000D03*
%TO.P,J1,5,Pin_5*%
%TO.N,unconnected-(J1-Pin_5-Pad5)*%
X142700000Y-82445000D03*
%TO.P,J1,6,Pin_6*%
%TO.N,unconnected-(J1-Pin_6-Pad6)*%
X142700000Y-79905000D03*
%TO.P,J1,7,Pin_7*%
%TO.N,unconnected-(J1-Pin_7-Pad7)*%
X145240000Y-82445000D03*
%TO.P,J1,8,Pin_8*%
%TO.N,unconnected-(J1-Pin_8-Pad8)*%
X145240000Y-79905000D03*
%TO.P,J1,9,Pin_9*%
%TO.N,unconnected-(J1-Pin_9-Pad9)*%
X147780000Y-82445000D03*
%TO.P,J1,10,Pin_10*%
%TO.N,unconnected-(J1-Pin_10-Pad10)*%
X147780000Y-79905000D03*
%TO.P,J1,11,Pin_11*%
%TO.N,unconnected-(J1-Pin_11-Pad11)*%
X150320000Y-82445000D03*
%TO.P,J1,12,Pin_12*%
%TO.N,unconnected-(J1-Pin_12-Pad12)*%
X150320000Y-79905000D03*
%TO.P,J1,13,Pin_13*%
%TO.N,unconnected-(J1-Pin_13-Pad13)*%
X152860000Y-82445000D03*
%TO.P,J1,14,Pin_14*%
%TO.N,unconnected-(J1-Pin_14-Pad14)*%
X152860000Y-79905000D03*
%TO.P,J1,15,Pin_15*%
%TO.N,unconnected-(J1-Pin_15-Pad15)*%
X155400000Y-82445000D03*
%TO.P,J1,16,Pin_16*%
%TO.N,unconnected-(J1-Pin_16-Pad16)*%
X155400000Y-79905000D03*
%TO.P,J1,17,Pin_17*%
%TO.N,unconnected-(J1-Pin_17-Pad17)*%
X157940000Y-82445000D03*
%TO.P,J1,18,Pin_18*%
%TO.N,axis_x8*%
X157940000Y-79905000D03*
%TO.P,J1,19,Pin_19*%
%TO.N,axis_y8*%
X160480000Y-82445000D03*
%TO.P,J1,20,Pin_20*%
%TO.N,unconnected-(J1-Pin_20-Pad20)*%
X160480000Y-79905000D03*
%TO.P,J1,21,Pin_21*%
%TO.N,axis_y7*%
X163020000Y-82445000D03*
%TO.P,J1,22,Pin_22*%
%TO.N,unconnected-(J1-Pin_22-Pad22)*%
X163020000Y-79905000D03*
%TO.P,J1,23,Pin_23*%
%TO.N,axis_y6*%
X165560000Y-82445000D03*
%TO.P,J1,24,Pin_24*%
%TO.N,axis_x7*%
X165560000Y-79905000D03*
%TO.P,J1,25,Pin_25*%
%TO.N,unconnected-(J1-Pin_25-Pad25)*%
X168100000Y-82445000D03*
%TO.P,J1,26,Pin_26*%
%TO.N,axis_x6*%
X168100000Y-79905000D03*
%TO.P,J1,27,Pin_27*%
%TO.N,unconnected-(J1-Pin_27-Pad27)*%
X170640000Y-82445000D03*
%TO.P,J1,28,Pin_28*%
%TO.N,axis_x5*%
X170640000Y-79905000D03*
%TO.P,J1,29,Pin_29*%
%TO.N,axis_y5*%
X173180000Y-82445000D03*
%TO.P,J1,30,Pin_30*%
%TO.N,unconnected-(J1-Pin_30-Pad30)*%
X173180000Y-79905000D03*
%TO.P,J1,31,Pin_31*%
%TO.N,axis_y4*%
X175720000Y-82445000D03*
%TO.P,J1,32,Pin_32*%
%TO.N,axis_x4*%
X175720000Y-79905000D03*
%TO.P,J1,33,Pin_33*%
%TO.N,axis_y3*%
X178260000Y-82445000D03*
%TO.P,J1,34,Pin_34*%
%TO.N,unconnected-(J1-Pin_34-Pad34)*%
X178260000Y-79905000D03*
%TO.P,J1,35,Pin_35*%
%TO.N,axis_y2*%
X180800000Y-82445000D03*
%TO.P,J1,36,Pin_36*%
%TO.N,axis_x3*%
X180800000Y-79905000D03*
%TO.P,J1,37,Pin_37*%
%TO.N,axis_y1*%
X183340000Y-82445000D03*
%TO.P,J1,38,Pin_38*%
%TO.N,axis_x2*%
X183340000Y-79905000D03*
%TO.P,J1,39,Pin_39*%
%TO.N,GND*%
X185880000Y-82445000D03*
%TO.P,J1,40,Pin_40*%
%TO.N,axis_x1*%
X185880000Y-79905000D03*
%TD*%
D11*
%TO.P,R31,1*%
%TO.N,Net-(R24-Pad2)*%
X185879924Y-106792871D03*
D12*
%TO.P,R31,2*%
%TO.N,Net-(R23-Pad2)*%
X183340077Y-113977130D03*
%TD*%
D11*
%TO.P,R13,1*%
%TO.N,Net-(R13-Pad1)*%
X152859924Y-106792871D03*
D12*
%TO.P,R13,2*%
%TO.N,Net-(R12-Pad1)*%
X150320077Y-113977130D03*
%TD*%
D11*
%TO.P,R22,1*%
%TO.N,axis_x3*%
X180799924Y-95362871D03*
D13*
%TO.P,R22,2*%
%TO.N,Net-(R22-Pad2)*%
X180799924Y-102982871D03*
%TD*%
D11*
%TO.P,R25,1*%
%TO.N,Net-(R18-Pad2)*%
X170639924Y-106792871D03*
D12*
%TO.P,R25,2*%
%TO.N,Net-(R17-Pad2)*%
X168100077Y-113977130D03*
%TD*%
D11*
%TO.P,R26,1*%
%TO.N,Net-(R19-Pad2)*%
X173179924Y-106792871D03*
D12*
%TO.P,R26,2*%
%TO.N,Net-(R18-Pad2)*%
X170640077Y-113977130D03*
%TD*%
D11*
%TO.P,R19,1*%
%TO.N,axis_x6*%
X173179924Y-95362871D03*
D13*
%TO.P,R19,2*%
%TO.N,Net-(R19-Pad2)*%
X173179924Y-102982871D03*
%TD*%
D11*
%TO.P,R29,1*%
%TO.N,Net-(R22-Pad2)*%
X180799924Y-106792871D03*
D12*
%TO.P,R29,2*%
%TO.N,Net-(R21-Pad2)*%
X178260077Y-113977130D03*
%TD*%
D11*
%TO.P,R2,1*%
%TO.N,axis_y7*%
X142699924Y-95362871D03*
D13*
%TO.P,R2,2*%
%TO.N,Net-(R10-Pad2)*%
X142699924Y-102982871D03*
%TD*%
D11*
%TO.P,R10,1*%
%TO.N,Net-(R10-Pad1)*%
X145239924Y-106792871D03*
D12*
%TO.P,R10,2*%
%TO.N,Net-(R10-Pad2)*%
X142700077Y-113977130D03*
%TD*%
D11*
%TO.P,R17,1*%
%TO.N,axis_x8*%
X168099924Y-95362871D03*
D13*
%TO.P,R17,2*%
%TO.N,Net-(R17-Pad2)*%
X168099924Y-102982871D03*
%TD*%
D11*
%TO.P,R12,1*%
%TO.N,Net-(R12-Pad1)*%
X150319924Y-106792871D03*
D12*
%TO.P,R12,2*%
%TO.N,Net-(R11-Pad1)*%
X147780077Y-113977130D03*
%TD*%
D16*
%TO.N,axis_x6*%
X169370000Y-89430000D02*
X169370000Y-81175000D01*
X169370000Y-81175000D02*
X168100000Y-79905000D01*
X173180000Y-93240000D02*
X169370000Y-89430000D01*
X173179924Y-95362871D02*
X173179924Y-93240076D01*
D17*
X173179924Y-93240076D02*
X173180000Y-93240000D01*
D16*
%TO.N,axis_x5*%
X171910000Y-89430000D02*
X171910000Y-81175000D01*
X175720000Y-93240000D02*
X171910000Y-89430000D01*
X175719924Y-95362871D02*
X175719924Y-93240076D01*
D17*
X175719924Y-93240076D02*
X175720000Y-93240000D01*
D16*
X171910000Y-81175000D02*
X170640000Y-79905000D01*
%TO.N,axis_x4*%
X176990000Y-81175000D02*
X176990000Y-91970000D01*
X176990000Y-91970000D02*
X178259924Y-93239924D01*
X178259924Y-93239924D02*
X178259924Y-95362871D01*
X175720000Y-79905000D02*
X176990000Y-81175000D01*
%TO.N,axis_x3*%
X180800000Y-79905000D02*
X179530000Y-81175000D01*
X179530000Y-91970152D02*
X180799924Y-93240076D01*
X179530000Y-81175000D02*
X179530000Y-91970152D01*
X180799924Y-93240076D02*
X180799924Y-95362871D01*
%TO.N,axis_x2*%
X183339924Y-93240076D02*
X183339924Y-95362871D01*
X183340000Y-79905000D02*
X182070000Y-81175000D01*
X182070000Y-91970152D02*
X183339924Y-93240076D01*
X182070000Y-81175000D02*
X182070000Y-91970152D01*
%TO.N,axis_x1*%
X185880000Y-79905000D02*
X184610000Y-81175000D01*
X184610000Y-81175000D02*
X184610000Y-91970152D01*
X184610000Y-91970152D02*
X185879924Y-93240076D01*
X185879924Y-93240076D02*
X185879924Y-95362871D01*
%TO.N,axis_x7*%
X170639924Y-93239924D02*
X166830000Y-89430000D01*
X166830000Y-81175000D02*
X165560000Y-79905000D01*
X170639924Y-95362871D02*
X170639924Y-93239924D01*
X166830000Y-89430000D02*
X166830000Y-81175000D01*
%TO.N,axis_x8*%
X157940000Y-79905000D02*
X159210000Y-81175000D01*
X159210000Y-81175000D02*
X159210000Y-84350000D01*
X159210000Y-84350000D02*
X168100000Y-93240000D01*
X168100000Y-93240000D02*
X168099924Y-93240076D01*
X168099924Y-93240076D02*
X168099924Y-95362871D01*
%TD*%
%TA.AperFunction,Conductor*%
%TO.N,GND*%
G36*
X188363039Y-78019685D02*
G01*
X188408794Y-78072489D01*
X188420000Y-78124000D01*
X188420000Y-83715000D01*
X194011000Y-83715000D01*
X194078039Y-83734685D01*
X194123794Y-83787489D01*
X194135000Y-83839000D01*
X194135000Y-128041000D01*
X194115315Y-128108039D01*
X194062511Y-128153794D01*
X194011000Y-128165000D01*
X188420000Y-128165000D01*
X188420000Y-133756000D01*
X188400315Y-133823039D01*
X188347511Y-133868794D01*
X188296000Y-133880000D01*
X135204000Y-133880000D01*
X135136961Y-133860315D01*
X135091206Y-133807511D01*
X135080000Y-133756000D01*
X135080000Y-128165000D01*
X129489000Y-128165000D01*
X129421961Y-128145315D01*
X129376206Y-128092511D01*
X129365000Y-128041000D01*
X129365000Y-123502134D01*
X143484669Y-123502134D01*
X143504273Y-123763750D01*
X143504274Y-123763755D01*
X143562653Y-124019532D01*
X143562655Y-124019541D01*
X143562657Y-124019546D01*
X143658509Y-124263773D01*
X143789691Y-124490987D01*
X143921813Y-124656663D01*
X143953275Y-124696115D01*
X144134830Y-124864571D01*
X144145598Y-124874563D01*
X144362373Y-125022358D01*
X144362378Y-125022360D01*
X144362379Y-125022361D01*
X144362380Y-125022362D01*
X144487920Y-125082818D01*
X144598750Y-125136191D01*
X144598751Y-125136191D01*
X144598754Y-125136193D01*
X144849462Y-125213526D01*
X145108895Y-125252630D01*
X145371259Y-125252630D01*
X145630692Y-125213526D01*
X145881400Y-125136193D01*
X146117781Y-125022358D01*
X146334556Y-124874563D01*
X146526882Y-124696111D01*
X146690463Y-124490987D01*
X146821645Y-124263773D01*
X146917497Y-124019546D01*
X146975879Y-123763760D01*
X146975885Y-123763680D01*
X146995485Y-123502134D01*
X157455093Y-123502134D01*
X157474692Y-123763675D01*
X157474693Y-123763680D01*
X157533058Y-124019400D01*
X157628883Y-124263556D01*
X157628882Y-124263556D01*
X157760030Y-124490707D01*
X157807873Y-124550701D01*
X157807874Y-124550701D01*
X158647226Y-123711349D01*
X158685901Y-123804718D01*
X158782075Y-123930055D01*
X158907412Y-124026229D01*
X159000779Y-124064902D01*
X158160831Y-124904850D01*
X158332546Y-125021923D01*
X158332550Y-125021925D01*
X158568854Y-125135724D01*
X158568858Y-125135725D01*
X158819494Y-125213037D01*
X158819500Y-125213039D01*
X159078848Y-125252129D01*
X159078857Y-125252130D01*
X159341143Y-125252130D01*
X159341151Y-125252129D01*
X159600499Y-125213039D01*
X159600505Y-125213037D01*
X159851143Y-125135725D01*
X160087445Y-125021928D01*
X160087456Y-125021921D01*
X160259167Y-124904850D01*
X159419220Y-124064902D01*
X159512588Y-124026229D01*
X159637925Y-123930055D01*
X159734099Y-123804719D01*
X159772773Y-123711350D01*
X160612124Y-124550701D01*
X160659974Y-124490700D01*
X160791116Y-124263556D01*
X160886941Y-124019400D01*
X160945306Y-123763680D01*
X160945307Y-123763675D01*
X160964907Y-123502134D01*
X171424669Y-123502134D01*
X171444273Y-123763750D01*
X171444274Y-123763755D01*
X171502653Y-124019532D01*
X171502655Y-124019541D01*
X171502657Y-124019546D01*
X171598509Y-124263773D01*
X171729691Y-124490987D01*
X171861813Y-124656663D01*
X171893275Y-124696115D01*
X172074830Y-124864571D01*
X172085598Y-124874563D01*
X172302373Y-125022358D01*
X172302378Y-125022360D01*
X172302379Y-125022361D01*
X172302380Y-125022362D01*
X172427920Y-125082818D01*
X172538750Y-125136191D01*
X172538751Y-125136191D01*
X172538754Y-125136193D01*
X172789462Y-125213526D01*
X173048895Y-125252630D01*
X173311259Y-125252630D01*
X173570692Y-125213526D01*
X173821400Y-125136193D01*
X174057781Y-125022358D01*
X174274556Y-124874563D01*
X174466882Y-124696111D01*
X174630463Y-124490987D01*
X174761645Y-124263773D01*
X174857497Y-124019546D01*
X174915879Y-123763760D01*
X174915885Y-123763680D01*
X174935485Y-123502134D01*
X174935485Y-123502125D01*
X174915880Y-123240509D01*
X174915879Y-123240504D01*
X174915879Y-123240500D01*
X174857497Y-122984714D01*
X174761645Y-122740487D01*
X174630463Y-122513273D01*
X174466882Y-122308149D01*
X174466881Y-122308148D01*
X174466878Y-122308144D01*
X174274556Y-122129697D01*
X174230130Y-122099408D01*
X174057781Y-121981902D01*
X174057777Y-121981900D01*
X174057774Y-121981898D01*
X174057773Y-121981897D01*
X173821402Y-121868068D01*
X173821404Y-121868068D01*
X173570700Y-121790736D01*
X173570696Y-121790735D01*
X173570692Y-121790734D01*
X173445900Y-121771924D01*
X173311264Y-121751630D01*
X173311259Y-121751630D01*
X173048895Y-121751630D01*
X173048889Y-121751630D01*
X172887324Y-121775983D01*
X172789462Y-121790734D01*
X172789459Y-121790735D01*
X172789453Y-121790736D01*
X172538750Y-121868068D01*
X172302380Y-121981897D01*
X172302379Y-121981898D01*
X172302373Y-121981901D01*
X172302373Y-121981902D01*
X172276916Y-121999258D01*
X172085597Y-122129697D01*
X171893275Y-122308144D01*
X171729691Y-122513273D01*
X171598509Y-122740486D01*
X171502659Y-122984708D01*
X171502653Y-122984727D01*
X171444274Y-123240504D01*
X171444273Y-123240509D01*
X171424669Y-123502125D01*
X171424669Y-123502134D01*
X160964907Y-123502134D01*
X160964907Y-123502125D01*
X160945307Y-123240584D01*
X160945306Y-123240579D01*
X160886941Y-122984859D01*
X160791116Y-122740703D01*
X160791117Y-122740703D01*
X160659971Y-122513556D01*
X160612125Y-122453557D01*
X159772772Y-123292909D01*
X159734099Y-123199542D01*
X159637925Y-123074205D01*
X159512588Y-122978031D01*
X159419219Y-122939356D01*
X160259167Y-122099408D01*
X160087447Y-121982332D01*
X160087445Y-121982331D01*
X159851142Y-121868534D01*
X159851144Y-121868534D01*
X159600505Y-121791222D01*
X159600499Y-121791220D01*
X159341151Y-121752130D01*
X159078848Y-121752130D01*
X158819500Y-121791220D01*
X158819494Y-121791222D01*
X158568858Y-121868534D01*
X158568854Y-121868535D01*
X158332550Y-121982334D01*
X158332546Y-121982336D01*
X158160832Y-122099408D01*
X159000780Y-122939356D01*
X158907412Y-122978031D01*
X158782075Y-123074205D01*
X158685901Y-123199541D01*
X158647226Y-123292910D01*
X157807873Y-122453557D01*
X157760029Y-122513553D01*
X157628883Y-122740703D01*
X157533058Y-122984859D01*
X157474693Y-123240579D01*
X157474692Y-123240584D01*
X157455093Y-123502125D01*
X157455093Y-123502134D01*
X146995485Y-123502134D01*
X146995485Y-123502125D01*
X146975880Y-123240509D01*
X146975879Y-123240504D01*
X146975879Y-123240500D01*
X146917497Y-122984714D01*
X146821645Y-122740487D01*
X146690463Y-122513273D01*
X146526882Y-122308149D01*
X146526881Y-122308148D01*
X146526878Y-122308144D01*
X146334556Y-122129697D01*
X146290130Y-122099408D01*
X146117781Y-121981902D01*
X146117777Y-121981900D01*
X146117774Y-121981898D01*
X146117773Y-121981897D01*
X145881402Y-121868068D01*
X145881404Y-121868068D01*
X145630700Y-121790736D01*
X145630696Y-121790735D01*
X145630692Y-121790734D01*
X145505900Y-121771924D01*
X145371264Y-121751630D01*
X145371259Y-121751630D01*
X145108895Y-121751630D01*
X145108889Y-121751630D01*
X144947324Y-121775983D01*
X144849462Y-121790734D01*
X144849459Y-121790735D01*
X144849453Y-121790736D01*
X144598750Y-121868068D01*
X144362380Y-121981897D01*
X144362379Y-121981898D01*
X144362373Y-121981901D01*
X144362373Y-121981902D01*
X144336916Y-121999258D01*
X144145597Y-122129697D01*
X143953275Y-122308144D01*
X143789691Y-122513273D01*
X143658509Y-122740486D01*
X143562659Y-122984708D01*
X143562653Y-122984727D01*
X143504274Y-123240504D01*
X143504273Y-123240509D01*
X143484669Y-123502125D01*
X143484669Y-123502134D01*
X129365000Y-123502134D01*
X129365000Y-113977131D01*
X138854609Y-113977131D01*
X138874441Y-114203816D01*
X138874443Y-114203827D01*
X138933335Y-114423618D01*
X138933338Y-114423627D01*
X139029508Y-114629862D01*
X139029509Y-114629864D01*
X139160031Y-114816271D01*
X139320935Y-114977175D01*
X139320938Y-114977177D01*
X139507343Y-115107698D01*
X139713581Y-115203869D01*
X139933385Y-115262765D01*
X140095307Y-115276931D01*
X140160075Y-115282598D01*
X140160077Y-115282598D01*
X140160079Y-115282598D01*
X140216750Y-115277639D01*
X140386769Y-115262765D01*
X140606573Y-115203869D01*
X140812811Y-115107698D01*
X140999216Y-114977177D01*
X141160124Y-114816269D01*
X141290645Y-114629864D01*
X141317695Y-114571854D01*
X141363867Y-114519415D01*
X141431060Y-114500263D01*
X141497942Y-114520478D01*
X141542459Y-114571855D01*
X141569506Y-114629858D01*
X141569509Y-114629864D01*
X141700031Y-114816271D01*
X141860935Y-114977175D01*
X141860938Y-114977177D01*
X142047343Y-115107698D01*
X142253581Y-115203869D01*
X142473385Y-115262765D01*
X142635307Y-115276931D01*
X142700075Y-115282598D01*
X142700077Y-115282598D01*
X142700079Y-115282598D01*
X142756750Y-115277639D01*
X142926769Y-115262765D01*
X143146573Y-115203869D01*
X143352811Y-115107698D01*
X143539216Y-114977177D01*
X143700124Y-114816269D01*
X143830645Y-114629864D01*
X143857695Y-114571854D01*
X143903867Y-114519415D01*
X143971060Y-114500263D01*
X144037942Y-114520478D01*
X144082459Y-114571855D01*
X144109506Y-114629858D01*
X144109509Y-114629864D01*
X144240031Y-114816271D01*
X144400935Y-114977175D01*
X144400938Y-114977177D01*
X144587343Y-115107698D01*
X144793581Y-115203869D01*
X145013385Y-115262765D01*
X145175307Y-115276931D01*
X145240075Y-115282598D01*
X145240077Y-115282598D01*
X145240079Y-115282598D01*
X145296750Y-115277639D01*
X145466769Y-115262765D01*
X145686573Y-115203869D01*
X145892811Y-115107698D01*
X146079216Y-114977177D01*
X146240124Y-114816269D01*
X146370645Y-114629864D01*
X146397695Y-114571854D01*
X146443867Y-114519415D01*
X146511060Y-114500263D01*
X146577942Y-114520478D01*
X146622459Y-114571855D01*
X146649506Y-114629858D01*
X146649509Y-114629864D01*
X146780031Y-114816271D01*
X146940935Y-114977175D01*
X146940938Y-114977177D01*
X147127343Y-115107698D01*
X147333581Y-115203869D01*
X147553385Y-115262765D01*
X147715307Y-115276931D01*
X147780075Y-115282598D01*
X147780077Y-115282598D01*
X147780079Y-115282598D01*
X147836750Y-115277639D01*
X148006769Y-115262765D01*
X148226573Y-115203869D01*
X148432811Y-115107698D01*
X148619216Y-114977177D01*
X148780124Y-114816269D01*
X148910645Y-114629864D01*
X148937695Y-114571854D01*
X148983867Y-114519415D01*
X149051060Y-114500263D01*
X149117942Y-114520478D01*
X149162459Y-114571855D01*
X149189506Y-114629858D01*
X149189509Y-114629864D01*
X149320031Y-114816271D01*
X149480935Y-114977175D01*
X149480938Y-114977177D01*
X149667343Y-115107698D01*
X149873581Y-115203869D01*
X150093385Y-115262765D01*
X150255307Y-115276931D01*
X150320075Y-115282598D01*
X150320077Y-115282598D01*
X150320079Y-115282598D01*
X150376750Y-115277639D01*
X150546769Y-115262765D01*
X150766573Y-115203869D01*
X150972811Y-115107698D01*
X151159216Y-114977177D01*
X151320124Y-114816269D01*
X151450645Y-114629864D01*
X151477695Y-114571854D01*
X151523867Y-114519415D01*
X151591060Y-114500263D01*
X151657942Y-114520478D01*
X151702459Y-114571855D01*
X151729506Y-114629858D01*
X151729509Y-114629864D01*
X151860031Y-114816271D01*
X152020935Y-114977175D01*
X152020938Y-114977177D01*
X152207343Y-115107698D01*
X152413581Y-115203869D01*
X152633385Y-115262765D01*
X152795307Y-115276931D01*
X152860075Y-115282598D01*
X152860077Y-115282598D01*
X152860079Y-115282598D01*
X152916750Y-115277639D01*
X153086769Y-115262765D01*
X153306573Y-115203869D01*
X153512811Y-115107698D01*
X153699216Y-114977177D01*
X153860124Y-114816269D01*
X153990645Y-114629864D01*
X154017695Y-114571854D01*
X154063867Y-114519415D01*
X154131060Y-114500263D01*
X154197942Y-114520478D01*
X154242459Y-114571855D01*
X154269506Y-114629858D01*
X154269509Y-114629864D01*
X154400031Y-114816271D01*
X154560935Y-114977175D01*
X154560938Y-114977177D01*
X154747343Y-115107698D01*
X154953581Y-115203869D01*
X155173385Y-115262765D01*
X155335307Y-115276931D01*
X155400075Y-115282598D01*
X155400077Y-115282598D01*
X155400079Y-115282598D01*
X155456750Y-115277639D01*
X155626769Y-115262765D01*
X155846573Y-115203869D01*
X156052811Y-115107698D01*
X156239216Y-114977177D01*
X156400124Y-114816269D01*
X156530645Y-114629864D01*
X156557695Y-114571854D01*
X156603867Y-114519415D01*
X156671060Y-114500263D01*
X156737942Y-114520478D01*
X156782459Y-114571855D01*
X156809506Y-114629858D01*
X156809509Y-114629864D01*
X156940031Y-114816271D01*
X157100935Y-114977175D01*
X157100938Y-114977177D01*
X157287343Y-115107698D01*
X157493581Y-115203869D01*
X157713385Y-115262765D01*
X157875307Y-115276931D01*
X157940075Y-115282598D01*
X157940077Y-115282598D01*
X157940079Y-115282598D01*
X157996750Y-115277639D01*
X158166769Y-115262765D01*
X158386573Y-115203869D01*
X158592811Y-115107698D01*
X158779216Y-114977177D01*
X158940124Y-114816269D01*
X159070645Y-114629864D01*
X159166816Y-114423626D01*
X159225712Y-114203822D01*
X159245545Y-113977131D01*
X166794609Y-113977131D01*
X166814441Y-114203816D01*
X166814443Y-114203827D01*
X166873335Y-114423618D01*
X166873338Y-114423627D01*
X166969508Y-114629862D01*
X166969509Y-114629864D01*
X167100031Y-114816271D01*
X167260935Y-114977175D01*
X167260938Y-114977177D01*
X167447343Y-115107698D01*
X167653581Y-115203869D01*
X167873385Y-115262765D01*
X168035307Y-115276931D01*
X168100075Y-115282598D01*
X168100077Y-115282598D01*
X168100079Y-115282598D01*
X168156750Y-115277639D01*
X168326769Y-115262765D01*
X168546573Y-115203869D01*
X168752811Y-115107698D01*
X168939216Y-114977177D01*
X169100124Y-114816269D01*
X169230645Y-114629864D01*
X169257695Y-114571854D01*
X169303867Y-114519415D01*
X169371060Y-114500263D01*
X169437942Y-114520478D01*
X169482459Y-114571855D01*
X169509506Y-114629858D01*
X169509509Y-114629864D01*
X169640031Y-114816271D01*
X169800935Y-114977175D01*
X169800938Y-114977177D01*
X169987343Y-115107698D01*
X170193581Y-115203869D01*
X170413385Y-115262765D01*
X170575307Y-115276931D01*
X170640075Y-115282598D01*
X170640077Y-115282598D01*
X170640079Y-115282598D01*
X170696750Y-115277639D01*
X170866769Y-115262765D01*
X171086573Y-115203869D01*
X171292811Y-115107698D01*
X171479216Y-114977177D01*
X171640124Y-114816269D01*
X171770645Y-114629864D01*
X171797695Y-114571854D01*
X171843867Y-114519415D01*
X171911060Y-114500263D01*
X171977942Y-114520478D01*
X172022459Y-114571855D01*
X172049506Y-114629858D01*
X172049509Y-114629864D01*
X172180031Y-114816271D01*
X172340935Y-114977175D01*
X172340938Y-114977177D01*
X172527343Y-115107698D01*
X172733581Y-115203869D01*
X172953385Y-115262765D01*
X173115307Y-115276931D01*
X173180075Y-115282598D01*
X173180077Y-115282598D01*
X173180079Y-115282598D01*
X173236750Y-115277639D01*
X173406769Y-115262765D01*
X173626573Y-115203869D01*
X173832811Y-115107698D01*
X174019216Y-114977177D01*
X174180124Y-114816269D01*
X174310645Y-114629864D01*
X174337695Y-114571854D01*
X174383867Y-114519415D01*
X174451060Y-114500263D01*
X174517942Y-114520478D01*
X174562459Y-114571855D01*
X174589506Y-114629858D01*
X174589509Y-114629864D01*
X174720031Y-114816271D01*
X174880935Y-114977175D01*
X174880938Y-114977177D01*
X175067343Y-115107698D01*
X175273581Y-115203869D01*
X175493385Y-115262765D01*
X175655307Y-115276931D01*
X175720075Y-115282598D01*
X175720077Y-115282598D01*
X175720079Y-115282598D01*
X175776750Y-115277639D01*
X175946769Y-115262765D01*
X176166573Y-115203869D01*
X176372811Y-115107698D01*
X176559216Y-114977177D01*
X176720124Y-114816269D01*
X176850645Y-114629864D01*
X176877695Y-114571854D01*
X176923867Y-114519415D01*
X176991060Y-114500263D01*
X177057942Y-114520478D01*
X177102459Y-114571855D01*
X177129506Y-114629858D01*
X177129509Y-114629864D01*
X177260031Y-114816271D01*
X177420935Y-114977175D01*
X177420938Y-114977177D01*
X177607343Y-115107698D01*
X177813581Y-115203869D01*
X178033385Y-115262765D01*
X178195307Y-115276931D01*
X178260075Y-115282598D01*
X178260077Y-115282598D01*
X178260079Y-115282598D01*
X178316750Y-115277639D01*
X178486769Y-115262765D01*
X178706573Y-115203869D01*
X178912811Y-115107698D01*
X179099216Y-114977177D01*
X179260124Y-114816269D01*
X179390645Y-114629864D01*
X179417695Y-114571854D01*
X179463867Y-114519415D01*
X179531060Y-114500263D01*
X179597942Y-114520478D01*
X179642459Y-114571855D01*
X179669506Y-114629858D01*
X179669509Y-114629864D01*
X179800031Y-114816271D01*
X179960935Y-114977175D01*
X179960938Y-114977177D01*
X180147343Y-115107698D01*
X180353581Y-115203869D01*
X180573385Y-115262765D01*
X180735307Y-115276931D01*
X180800075Y-115282598D01*
X180800077Y-115282598D01*
X180800079Y-115282598D01*
X180856750Y-115277639D01*
X181026769Y-115262765D01*
X181246573Y-115203869D01*
X181452811Y-115107698D01*
X181639216Y-114977177D01*
X181800124Y-114816269D01*
X181930645Y-114629864D01*
X181957695Y-114571854D01*
X182003867Y-114519415D01*
X182071060Y-114500263D01*
X182137942Y-114520478D01*
X182182459Y-114571855D01*
X182209506Y-114629858D01*
X182209509Y-114629864D01*
X182340031Y-114816271D01*
X182500935Y-114977175D01*
X182500938Y-114977177D01*
X182687343Y-115107698D01*
X182893581Y-115203869D01*
X183113385Y-115262765D01*
X183275307Y-115276931D01*
X183340075Y-115282598D01*
X183340077Y-115282598D01*
X183340079Y-115282598D01*
X183396750Y-115277639D01*
X183566769Y-115262765D01*
X183786573Y-115203869D01*
X183992811Y-115107698D01*
X184179216Y-114977177D01*
X184340124Y-114816269D01*
X184470645Y-114629864D01*
X184497695Y-114571854D01*
X184543867Y-114519415D01*
X184611060Y-114500263D01*
X184677942Y-114520478D01*
X184722459Y-114571855D01*
X184749506Y-114629858D01*
X184749509Y-114629864D01*
X184880031Y-114816271D01*
X185040935Y-114977175D01*
X185040938Y-114977177D01*
X185227343Y-115107698D01*
X185433581Y-115203869D01*
X185653385Y-115262765D01*
X185815307Y-115276931D01*
X185880075Y-115282598D01*
X185880077Y-115282598D01*
X185880079Y-115282598D01*
X185936750Y-115277639D01*
X186106769Y-115262765D01*
X186326573Y-115203869D01*
X186532811Y-115107698D01*
X186719216Y-114977177D01*
X186880124Y-114816269D01*
X187010645Y-114629864D01*
X187106816Y-114423626D01*
X187165712Y-114203822D01*
X187185545Y-113977130D01*
X187165712Y-113750438D01*
X187106816Y-113530634D01*
X187010645Y-113324396D01*
X186880124Y-113137991D01*
X186880122Y-113137988D01*
X186719218Y-112977084D01*
X186532811Y-112846562D01*
X186532809Y-112846561D01*
X186326574Y-112750391D01*
X186326565Y-112750388D01*
X186106774Y-112691496D01*
X186106770Y-112691495D01*
X186106769Y-112691495D01*
X186106768Y-112691494D01*
X186106763Y-112691494D01*
X185880079Y-112671662D01*
X185880075Y-112671662D01*
X185653390Y-112691494D01*
X185653379Y-112691496D01*
X185433588Y-112750388D01*
X185433579Y-112750391D01*
X185227344Y-112846561D01*
X185227342Y-112846562D01*
X185040935Y-112977084D01*
X184880031Y-113137988D01*
X184749509Y-113324395D01*
X184749508Y-113324397D01*
X184722459Y-113382405D01*
X184676286Y-113434844D01*
X184609093Y-113453996D01*
X184542212Y-113433780D01*
X184497695Y-113382405D01*
X184470645Y-113324397D01*
X184470644Y-113324395D01*
X184340122Y-113137988D01*
X184179218Y-112977084D01*
X183992811Y-112846562D01*
X183992809Y-112846561D01*
X183786574Y-112750391D01*
X183786565Y-112750388D01*
X183566774Y-112691496D01*
X183566770Y-112691495D01*
X183566769Y-112691495D01*
X183566768Y-112691494D01*
X183566763Y-112691494D01*
X183340079Y-112671662D01*
X183340075Y-112671662D01*
X183113390Y-112691494D01*
X183113379Y-112691496D01*
X182893588Y-112750388D01*
X182893579Y-112750391D01*
X182687344Y-112846561D01*
X182687342Y-112846562D01*
X182500935Y-112977084D01*
X182340031Y-113137988D01*
X182209509Y-113324395D01*
X182209508Y-113324397D01*
X182182459Y-113382405D01*
X182136286Y-113434844D01*
X182069093Y-113453996D01*
X182002212Y-113433780D01*
X181957695Y-113382405D01*
X181930645Y-113324397D01*
X181930644Y-113324395D01*
X181800122Y-113137988D01*
X181639218Y-112977084D01*
X181452811Y-112846562D01*
X181452809Y-112846561D01*
X181246574Y-112750391D01*
X181246565Y-112750388D01*
X181026774Y-112691496D01*
X181026770Y-112691495D01*
X181026769Y-112691495D01*
X181026768Y-112691494D01*
X181026763Y-112691494D01*
X180800079Y-112671662D01*
X180800075Y-112671662D01*
X180573390Y-112691494D01*
X180573379Y-112691496D01*
X180353588Y-112750388D01*
X180353579Y-112750391D01*
X180147344Y-112846561D01*
X180147342Y-112846562D01*
X179960935Y-112977084D01*
X179800031Y-113137988D01*
X179669509Y-113324395D01*
X179669508Y-113324397D01*
X179642459Y-113382405D01*
X179596286Y-113434844D01*
X179529093Y-113453996D01*
X179462212Y-113433780D01*
X179417695Y-113382405D01*
X179390645Y-113324397D01*
X179390644Y-113324395D01*
X179260122Y-113137988D01*
X179099218Y-112977084D01*
X178912811Y-112846562D01*
X178912809Y-112846561D01*
X178706574Y-112750391D01*
X178706565Y-112750388D01*
X178486774Y-112691496D01*
X178486770Y-112691495D01*
X178486769Y-112691495D01*
X178486768Y-112691494D01*
X178486763Y-112691494D01*
X178260079Y-112671662D01*
X178260075Y-112671662D01*
X178033390Y-112691494D01*
X178033379Y-112691496D01*
X177813588Y-112750388D01*
X177813579Y-112750391D01*
X177607344Y-112846561D01*
X177607342Y-112846562D01*
X177420935Y-112977084D01*
X177260031Y-113137988D01*
X177129509Y-113324395D01*
X177129508Y-113324397D01*
X177102459Y-113382405D01*
X177056286Y-113434844D01*
X176989093Y-113453996D01*
X176922212Y-113433780D01*
X176877695Y-113382405D01*
X176850645Y-113324397D01*
X176850644Y-113324395D01*
X176720122Y-113137988D01*
X176559218Y-112977084D01*
X176372811Y-112846562D01*
X176372809Y-112846561D01*
X176166574Y-112750391D01*
X176166565Y-112750388D01*
X175946774Y-112691496D01*
X175946770Y-112691495D01*
X175946769Y-112691495D01*
X175946768Y-112691494D01*
X175946763Y-112691494D01*
X175720079Y-112671662D01*
X175720075Y-112671662D01*
X175493390Y-112691494D01*
X175493379Y-112691496D01*
X175273588Y-112750388D01*
X175273579Y-112750391D01*
X175067344Y-112846561D01*
X175067342Y-112846562D01*
X174880935Y-112977084D01*
X174720031Y-113137988D01*
X174589509Y-113324395D01*
X174589508Y-113324397D01*
X174562459Y-113382405D01*
X174516286Y-113434844D01*
X174449093Y-113453996D01*
X174382212Y-113433780D01*
X174337695Y-113382405D01*
X174310645Y-113324397D01*
X174310644Y-113324395D01*
X174180122Y-113137988D01*
X174019218Y-112977084D01*
X173832811Y-112846562D01*
X173832809Y-112846561D01*
X173626574Y-112750391D01*
X173626565Y-112750388D01*
X173406774Y-112691496D01*
X173406770Y-112691495D01*
X173406769Y-112691495D01*
X173406768Y-112691494D01*
X173406763Y-112691494D01*
X173180079Y-112671662D01*
X173180075Y-112671662D01*
X172953390Y-112691494D01*
X172953379Y-112691496D01*
X172733588Y-112750388D01*
X172733579Y-112750391D01*
X172527344Y-112846561D01*
X172527342Y-112846562D01*
X172340935Y-112977084D01*
X172180031Y-113137988D01*
X172049509Y-113324395D01*
X172049508Y-113324397D01*
X172022459Y-113382405D01*
X171976286Y-113434844D01*
X171909093Y-113453996D01*
X171842212Y-113433780D01*
X171797695Y-113382405D01*
X171770645Y-113324397D01*
X171770644Y-113324395D01*
X171640122Y-113137988D01*
X171479218Y-112977084D01*
X171292811Y-112846562D01*
X171292809Y-112846561D01*
X171086574Y-112750391D01*
X171086565Y-112750388D01*
X170866774Y-112691496D01*
X170866770Y-112691495D01*
X170866769Y-112691495D01*
X170866768Y-112691494D01*
X170866763Y-112691494D01*
X170640079Y-112671662D01*
X170640075Y-112671662D01*
X170413390Y-112691494D01*
X170413379Y-112691496D01*
X170193588Y-112750388D01*
X170193579Y-112750391D01*
X169987344Y-112846561D01*
X169987342Y-112846562D01*
X169800935Y-112977084D01*
X169640031Y-113137988D01*
X169509509Y-113324395D01*
X169509508Y-113324397D01*
X169482459Y-113382405D01*
X169436286Y-113434844D01*
X169369093Y-113453996D01*
X169302212Y-113433780D01*
X169257695Y-113382405D01*
X169230645Y-113324397D01*
X169230644Y-113324395D01*
X169100122Y-113137988D01*
X168939218Y-112977084D01*
X168752811Y-112846562D01*
X168752809Y-112846561D01*
X168546574Y-112750391D01*
X168546565Y-112750388D01*
X168326774Y-112691496D01*
X168326770Y-112691495D01*
X168326769Y-112691495D01*
X168326768Y-112691494D01*
X168326763Y-112691494D01*
X168100079Y-112671662D01*
X168100075Y-112671662D01*
X167873390Y-112691494D01*
X167873379Y-112691496D01*
X167653588Y-112750388D01*
X167653579Y-112750391D01*
X167447344Y-112846561D01*
X167447342Y-112846562D01*
X167260935Y-112977084D01*
X167100031Y-113137988D01*
X166969509Y-113324395D01*
X166969508Y-113324397D01*
X166873338Y-113530632D01*
X166873335Y-113530641D01*
X166814443Y-113750432D01*
X166814441Y-113750443D01*
X166794609Y-113977128D01*
X166794609Y-113977131D01*
X159245545Y-113977131D01*
X159245545Y-113977130D01*
X159225712Y-113750438D01*
X159166816Y-113530634D01*
X159070645Y-113324396D01*
X158940124Y-113137991D01*
X158940122Y-113137988D01*
X158779218Y-112977084D01*
X158592811Y-112846562D01*
X158592809Y-112846561D01*
X158386574Y-112750391D01*
X158386565Y-112750388D01*
X158166774Y-112691496D01*
X158166770Y-112691495D01*
X158166769Y-112691495D01*
X158166768Y-112691494D01*
X158166763Y-112691494D01*
X157940079Y-112671662D01*
X157940075Y-112671662D01*
X157713390Y-112691494D01*
X157713379Y-112691496D01*
X157493588Y-112750388D01*
X157493579Y-112750391D01*
X157287344Y-112846561D01*
X157287342Y-112846562D01*
X157100935Y-112977084D01*
X156940031Y-113137988D01*
X156809509Y-113324395D01*
X156809508Y-113324397D01*
X156782459Y-113382405D01*
X156736286Y-113434844D01*
X156669093Y-113453996D01*
X156602212Y-113433780D01*
X156557695Y-113382405D01*
X156530645Y-113324397D01*
X156530644Y-113324395D01*
X156400122Y-113137988D01*
X156239218Y-112977084D01*
X156052811Y-112846562D01*
X156052809Y-112846561D01*
X155846574Y-112750391D01*
X155846565Y-112750388D01*
X155626774Y-112691496D01*
X155626770Y-112691495D01*
X155626769Y-112691495D01*
X155626768Y-112691494D01*
X155626763Y-112691494D01*
X155400079Y-112671662D01*
X155400075Y-112671662D01*
X155173390Y-112691494D01*
X155173379Y-112691496D01*
X154953588Y-112750388D01*
X154953579Y-112750391D01*
X154747344Y-112846561D01*
X154747342Y-112846562D01*
X154560935Y-112977084D01*
X154400031Y-113137988D01*
X154269509Y-113324395D01*
X154269508Y-113324397D01*
X154242459Y-113382405D01*
X154196286Y-113434844D01*
X154129093Y-113453996D01*
X154062212Y-113433780D01*
X154017695Y-113382405D01*
X153990645Y-113324397D01*
X153990644Y-113324395D01*
X153860122Y-113137988D01*
X153699218Y-112977084D01*
X153512811Y-112846562D01*
X153512809Y-112846561D01*
X153306574Y-112750391D01*
X153306565Y-112750388D01*
X153086774Y-112691496D01*
X153086770Y-112691495D01*
X153086769Y-112691495D01*
X153086768Y-112691494D01*
X153086763Y-112691494D01*
X152860079Y-112671662D01*
X152860075Y-112671662D01*
X152633390Y-112691494D01*
X152633379Y-112691496D01*
X152413588Y-112750388D01*
X152413579Y-112750391D01*
X152207344Y-112846561D01*
X152207342Y-112846562D01*
X152020935Y-112977084D01*
X151860031Y-113137988D01*
X151729509Y-113324395D01*
X151729508Y-113324397D01*
X151702459Y-113382405D01*
X151656286Y-113434844D01*
X151589093Y-113453996D01*
X151522212Y-113433780D01*
X151477695Y-113382405D01*
X151450645Y-113324397D01*
X151450644Y-113324395D01*
X151320122Y-113137988D01*
X151159218Y-112977084D01*
X150972811Y-112846562D01*
X150972809Y-112846561D01*
X150766574Y-112750391D01*
X150766565Y-112750388D01*
X150546774Y-112691496D01*
X150546770Y-112691495D01*
X150546769Y-112691495D01*
X150546768Y-112691494D01*
X150546763Y-112691494D01*
X150320079Y-112671662D01*
X150320075Y-112671662D01*
X150093390Y-112691494D01*
X150093379Y-112691496D01*
X149873588Y-112750388D01*
X149873579Y-112750391D01*
X149667344Y-112846561D01*
X149667342Y-112846562D01*
X149480935Y-112977084D01*
X149320031Y-113137988D01*
X149189509Y-113324395D01*
X149189508Y-113324397D01*
X149162459Y-113382405D01*
X149116286Y-113434844D01*
X149049093Y-113453996D01*
X148982212Y-113433780D01*
X148937695Y-113382405D01*
X148910645Y-113324397D01*
X148910644Y-113324395D01*
X148780122Y-113137988D01*
X148619218Y-112977084D01*
X148432811Y-112846562D01*
X148432809Y-112846561D01*
X148226574Y-112750391D01*
X148226565Y-112750388D01*
X148006774Y-112691496D01*
X148006770Y-112691495D01*
X148006769Y-112691495D01*
X148006768Y-112691494D01*
X148006763Y-112691494D01*
X147780079Y-112671662D01*
X147780075Y-112671662D01*
X147553390Y-112691494D01*
X147553379Y-112691496D01*
X147333588Y-112750388D01*
X147333579Y-112750391D01*
X147127344Y-112846561D01*
X147127342Y-112846562D01*
X146940935Y-112977084D01*
X146780031Y-113137988D01*
X146649509Y-113324395D01*
X146649508Y-113324397D01*
X146622459Y-113382405D01*
X146576286Y-113434844D01*
X146509093Y-113453996D01*
X146442212Y-113433780D01*
X146397695Y-113382405D01*
X146370645Y-113324397D01*
X146370644Y-113324395D01*
X146240122Y-113137988D01*
X146079218Y-112977084D01*
X145892811Y-112846562D01*
X145892809Y-112846561D01*
X145686574Y-112750391D01*
X145686565Y-112750388D01*
X145466774Y-112691496D01*
X145466770Y-112691495D01*
X145466769Y-112691495D01*
X145466768Y-112691494D01*
X145466763Y-112691494D01*
X145240079Y-112671662D01*
X145240075Y-112671662D01*
X145013390Y-112691494D01*
X145013379Y-112691496D01*
X144793588Y-112750388D01*
X144793579Y-112750391D01*
X144587344Y-112846561D01*
X144587342Y-112846562D01*
X144400935Y-112977084D01*
X144240031Y-113137988D01*
X144109509Y-113324395D01*
X144109508Y-113324397D01*
X144082459Y-113382405D01*
X144036286Y-113434844D01*
X143969093Y-113453996D01*
X143902212Y-113433780D01*
X143857695Y-113382405D01*
X143830645Y-113324397D01*
X143830644Y-113324395D01*
X143700122Y-113137988D01*
X143539218Y-112977084D01*
X143352811Y-112846562D01*
X143352809Y-112846561D01*
X143146574Y-112750391D01*
X143146565Y-112750388D01*
X142926774Y-112691496D01*
X142926770Y-112691495D01*
X142926769Y-112691495D01*
X142926768Y-112691494D01*
X142926763Y-112691494D01*
X142700079Y-112671662D01*
X142700075Y-112671662D01*
X142473390Y-112691494D01*
X142473379Y-112691496D01*
X142253588Y-112750388D01*
X142253579Y-112750391D01*
X142047344Y-112846561D01*
X142047342Y-112846562D01*
X141860935Y-112977084D01*
X141700031Y-113137988D01*
X141569509Y-113324395D01*
X141569508Y-113324397D01*
X141542459Y-113382405D01*
X141496286Y-113434844D01*
X141429093Y-113453996D01*
X141362212Y-113433780D01*
X141317695Y-113382405D01*
X141290645Y-113324397D01*
X141290644Y-113324395D01*
X141160122Y-113137988D01*
X140999218Y-112977084D01*
X140812811Y-112846562D01*
X140812809Y-112846561D01*
X140606574Y-112750391D01*
X140606565Y-112750388D01*
X140386774Y-112691496D01*
X140386770Y-112691495D01*
X140386769Y-112691495D01*
X140386768Y-112691494D01*
X140386763Y-112691494D01*
X140160079Y-112671662D01*
X140160075Y-112671662D01*
X139933390Y-112691494D01*
X139933379Y-112691496D01*
X139713588Y-112750388D01*
X139713579Y-112750391D01*
X139507344Y-112846561D01*
X139507342Y-112846562D01*
X139320935Y-112977084D01*
X139160031Y-113137988D01*
X139029509Y-113324395D01*
X139029508Y-113324397D01*
X138933338Y-113530632D01*
X138933335Y-113530641D01*
X138874443Y-113750432D01*
X138874441Y-113750443D01*
X138854609Y-113977128D01*
X138854609Y-113977131D01*
X129365000Y-113977131D01*
X129365000Y-106792872D01*
X141394456Y-106792872D01*
X141414288Y-107019557D01*
X141414290Y-107019568D01*
X141473182Y-107239359D01*
X141473185Y-107239368D01*
X141569355Y-107445603D01*
X141569356Y-107445605D01*
X141699878Y-107632012D01*
X141860782Y-107792916D01*
X141860785Y-107792918D01*
X142047190Y-107923439D01*
X142253428Y-108019610D01*
X142473232Y-108078506D01*
X142635154Y-108092672D01*
X142699922Y-108098339D01*
X142699924Y-108098339D01*
X142699926Y-108098339D01*
X142756597Y-108093380D01*
X142926616Y-108078506D01*
X143146420Y-108019610D01*
X143352658Y-107923439D01*
X143539063Y-107792918D01*
X143699971Y-107632010D01*
X143830492Y-107445605D01*
X143857542Y-107387595D01*
X143903714Y-107335156D01*
X143970907Y-107316004D01*
X144037789Y-107336219D01*
X144082306Y-107387596D01*
X144109353Y-107445599D01*
X144109356Y-107445605D01*
X144239878Y-107632012D01*
X144400782Y-107792916D01*
X144400785Y-107792918D01*
X144587190Y-107923439D01*
X144793428Y-108019610D01*
X145013232Y-108078506D01*
X145175154Y-108092672D01*
X145239922Y-108098339D01*
X145239924Y-108098339D01*
X145239926Y-108098339D01*
X145296597Y-108093380D01*
X145466616Y-108078506D01*
X145686420Y-108019610D01*
X145892658Y-107923439D01*
X146079063Y-107792918D01*
X146239971Y-107632010D01*
X146370492Y-107445605D01*
X146397542Y-107387595D01*
X146443714Y-107335156D01*
X146510907Y-107316004D01*
X146577789Y-107336219D01*
X146622306Y-107387596D01*
X146649353Y-107445599D01*
X146649356Y-107445605D01*
X146779878Y-107632012D01*
X146940782Y-107792916D01*
X146940785Y-107792918D01*
X147127190Y-107923439D01*
X147333428Y-108019610D01*
X147553232Y-108078506D01*
X147715154Y-108092672D01*
X147779922Y-108098339D01*
X147779924Y-108098339D01*
X147779926Y-108098339D01*
X147836597Y-108093380D01*
X148006616Y-108078506D01*
X148226420Y-108019610D01*
X148432658Y-107923439D01*
X148619063Y-107792918D01*
X148779971Y-107632010D01*
X148910492Y-107445605D01*
X148937542Y-107387595D01*
X148983714Y-107335156D01*
X149050907Y-107316004D01*
X149117789Y-107336219D01*
X149162306Y-107387596D01*
X149189353Y-107445599D01*
X149189356Y-107445605D01*
X149319878Y-107632012D01*
X149480782Y-107792916D01*
X149480785Y-107792918D01*
X149667190Y-107923439D01*
X149873428Y-108019610D01*
X150093232Y-108078506D01*
X150255154Y-108092672D01*
X150319922Y-108098339D01*
X150319924Y-108098339D01*
X150319926Y-108098339D01*
X150376597Y-108093380D01*
X150546616Y-108078506D01*
X150766420Y-108019610D01*
X150972658Y-107923439D01*
X151159063Y-107792918D01*
X151319971Y-107632010D01*
X151450492Y-107445605D01*
X151477542Y-107387595D01*
X151523714Y-107335156D01*
X151590907Y-107316004D01*
X151657789Y-107336219D01*
X151702306Y-107387596D01*
X151729353Y-107445599D01*
X151729356Y-107445605D01*
X151859878Y-107632012D01*
X152020782Y-107792916D01*
X152020785Y-107792918D01*
X152207190Y-107923439D01*
X152413428Y-108019610D01*
X152633232Y-108078506D01*
X152795154Y-108092672D01*
X152859922Y-108098339D01*
X152859924Y-108098339D01*
X152859926Y-108098339D01*
X152916597Y-108093380D01*
X153086616Y-108078506D01*
X153306420Y-108019610D01*
X153512658Y-107923439D01*
X153699063Y-107792918D01*
X153859971Y-107632010D01*
X153990492Y-107445605D01*
X154017542Y-107387595D01*
X154063714Y-107335156D01*
X154130907Y-107316004D01*
X154197789Y-107336219D01*
X154242306Y-107387596D01*
X154269353Y-107445599D01*
X154269356Y-107445605D01*
X154399878Y-107632012D01*
X154560782Y-107792916D01*
X154560785Y-107792918D01*
X154747190Y-107923439D01*
X154953428Y-108019610D01*
X155173232Y-108078506D01*
X155335154Y-108092672D01*
X155399922Y-108098339D01*
X155399924Y-108098339D01*
X155399926Y-108098339D01*
X155456597Y-108093380D01*
X155626616Y-108078506D01*
X155846420Y-108019610D01*
X156052658Y-107923439D01*
X156239063Y-107792918D01*
X156399971Y-107632010D01*
X156530492Y-107445605D01*
X156557542Y-107387595D01*
X156603714Y-107335156D01*
X156670907Y-107316004D01*
X156737789Y-107336219D01*
X156782306Y-107387596D01*
X156809353Y-107445599D01*
X156809356Y-107445605D01*
X156939878Y-107632012D01*
X157100782Y-107792916D01*
X157100785Y-107792918D01*
X157287190Y-107923439D01*
X157493428Y-108019610D01*
X157713232Y-108078506D01*
X157875154Y-108092672D01*
X157939922Y-108098339D01*
X157939924Y-108098339D01*
X157939926Y-108098339D01*
X157996597Y-108093380D01*
X158166616Y-108078506D01*
X158386420Y-108019610D01*
X158592658Y-107923439D01*
X158779063Y-107792918D01*
X158939971Y-107632010D01*
X159070492Y-107445605D01*
X159166663Y-107239367D01*
X159181471Y-107184101D01*
X159217835Y-107124441D01*
X159247804Y-107104301D01*
X160089266Y-106702402D01*
X160074938Y-106792871D01*
X160094759Y-106918019D01*
X160152283Y-107030916D01*
X160241879Y-107120512D01*
X160305805Y-107153084D01*
X159436022Y-107568508D01*
X159480256Y-107631679D01*
X159480265Y-107631690D01*
X159641103Y-107792528D01*
X159827441Y-107923005D01*
X160033597Y-108019136D01*
X160033606Y-108019140D01*
X160253313Y-108078010D01*
X160253324Y-108078012D01*
X160479922Y-108097837D01*
X160479926Y-108097837D01*
X160706528Y-108078011D01*
X160706536Y-108078010D01*
X160804181Y-108051845D01*
X160389456Y-107183528D01*
X160448443Y-107192871D01*
X160511405Y-107192871D01*
X160605072Y-107178036D01*
X160717969Y-107120512D01*
X160807565Y-107030916D01*
X160840136Y-106966990D01*
X161255560Y-107836771D01*
X161255561Y-107836771D01*
X161318738Y-107792534D01*
X161479584Y-107631687D01*
X161610058Y-107445353D01*
X161706189Y-107239197D01*
X161706193Y-107239188D01*
X161765063Y-107019481D01*
X161765065Y-107019470D01*
X161784890Y-106792873D01*
X161784890Y-106792872D01*
X169334456Y-106792872D01*
X169354288Y-107019557D01*
X169354290Y-107019568D01*
X169413182Y-107239359D01*
X169413185Y-107239368D01*
X169509355Y-107445603D01*
X169509356Y-107445605D01*
X169639878Y-107632012D01*
X169800782Y-107792916D01*
X169800785Y-107792918D01*
X169987190Y-107923439D01*
X170193428Y-108019610D01*
X170413232Y-108078506D01*
X170575154Y-108092672D01*
X170639922Y-108098339D01*
X170639924Y-108098339D01*
X170639926Y-108098339D01*
X170696597Y-108093380D01*
X170866616Y-108078506D01*
X171086420Y-108019610D01*
X171292658Y-107923439D01*
X171479063Y-107792918D01*
X171639971Y-107632010D01*
X171770492Y-107445605D01*
X171797542Y-107387595D01*
X171843714Y-107335156D01*
X171910907Y-107316004D01*
X171977789Y-107336219D01*
X172022306Y-107387596D01*
X172049353Y-107445599D01*
X172049356Y-107445605D01*
X172179878Y-107632012D01*
X172340782Y-107792916D01*
X172340785Y-107792918D01*
X172527190Y-107923439D01*
X172733428Y-108019610D01*
X172953232Y-108078506D01*
X173115154Y-108092672D01*
X173179922Y-108098339D01*
X173179924Y-108098339D01*
X173179926Y-108098339D01*
X173236597Y-108093380D01*
X173406616Y-108078506D01*
X173626420Y-108019610D01*
X173832658Y-107923439D01*
X174019063Y-107792918D01*
X174179971Y-107632010D01*
X174310492Y-107445605D01*
X174337542Y-107387595D01*
X174383714Y-107335156D01*
X174450907Y-107316004D01*
X174517789Y-107336219D01*
X174562306Y-107387596D01*
X174589353Y-107445599D01*
X174589356Y-107445605D01*
X174719878Y-107632012D01*
X174880782Y-107792916D01*
X174880785Y-107792918D01*
X175067190Y-107923439D01*
X175273428Y-108019610D01*
X175493232Y-108078506D01*
X175655154Y-108092672D01*
X175719922Y-108098339D01*
X175719924Y-108098339D01*
X175719926Y-108098339D01*
X175776597Y-108093380D01*
X175946616Y-108078506D01*
X176166420Y-108019610D01*
X176372658Y-107923439D01*
X176559063Y-107792918D01*
X176719971Y-107632010D01*
X176850492Y-107445605D01*
X176877542Y-107387595D01*
X176923714Y-107335156D01*
X176990907Y-107316004D01*
X177057789Y-107336219D01*
X177102306Y-107387596D01*
X177129353Y-107445599D01*
X177129356Y-107445605D01*
X177259878Y-107632012D01*
X177420782Y-107792916D01*
X177420785Y-107792918D01*
X177607190Y-107923439D01*
X177813428Y-108019610D01*
X178033232Y-108078506D01*
X178195154Y-108092672D01*
X178259922Y-108098339D01*
X178259924Y-108098339D01*
X178259926Y-108098339D01*
X178316597Y-108093380D01*
X178486616Y-108078506D01*
X178706420Y-108019610D01*
X178912658Y-107923439D01*
X179099063Y-107792918D01*
X179259971Y-107632010D01*
X179390492Y-107445605D01*
X179417542Y-107387595D01*
X179463714Y-107335156D01*
X179530907Y-107316004D01*
X179597789Y-107336219D01*
X179642306Y-107387596D01*
X179669353Y-107445599D01*
X179669356Y-107445605D01*
X179799878Y-107632012D01*
X179960782Y-107792916D01*
X179960785Y-107792918D01*
X180147190Y-107923439D01*
X180353428Y-108019610D01*
X180573232Y-108078506D01*
X180735154Y-108092672D01*
X180799922Y-108098339D01*
X180799924Y-108098339D01*
X180799926Y-108098339D01*
X180856597Y-108093380D01*
X181026616Y-108078506D01*
X181246420Y-108019610D01*
X181452658Y-107923439D01*
X181639063Y-107792918D01*
X181799971Y-107632010D01*
X181930492Y-107445605D01*
X181957542Y-107387595D01*
X182003714Y-107335156D01*
X182070907Y-107316004D01*
X182137789Y-107336219D01*
X182182306Y-107387596D01*
X182209353Y-107445599D01*
X182209356Y-107445605D01*
X182339878Y-107632012D01*
X182500782Y-107792916D01*
X182500785Y-107792918D01*
X182687190Y-107923439D01*
X182893428Y-108019610D01*
X183113232Y-108078506D01*
X183275154Y-108092672D01*
X183339922Y-108098339D01*
X183339924Y-108098339D01*
X183339926Y-108098339D01*
X183396597Y-108093380D01*
X183566616Y-108078506D01*
X183786420Y-108019610D01*
X183992658Y-107923439D01*
X184179063Y-107792918D01*
X184339971Y-107632010D01*
X184470492Y-107445605D01*
X184497542Y-107387595D01*
X184543714Y-107335156D01*
X184610907Y-107316004D01*
X184677789Y-107336219D01*
X184722306Y-107387596D01*
X184749353Y-107445599D01*
X184749356Y-107445605D01*
X184879878Y-107632012D01*
X185040782Y-107792916D01*
X185040785Y-107792918D01*
X185227190Y-107923439D01*
X185433428Y-108019610D01*
X185653232Y-108078506D01*
X185815154Y-108092672D01*
X185879922Y-108098339D01*
X185879924Y-108098339D01*
X185879926Y-108098339D01*
X185936597Y-108093380D01*
X186106616Y-108078506D01*
X186326420Y-108019610D01*
X186532658Y-107923439D01*
X186719063Y-107792918D01*
X186879971Y-107632010D01*
X187010492Y-107445605D01*
X187106663Y-107239367D01*
X187121471Y-107184101D01*
X187157835Y-107124441D01*
X187187804Y-107104301D01*
X188029266Y-106702402D01*
X188014938Y-106792871D01*
X188034759Y-106918019D01*
X188092283Y-107030916D01*
X188181879Y-107120512D01*
X188245805Y-107153084D01*
X187376022Y-107568508D01*
X187420256Y-107631679D01*
X187420265Y-107631690D01*
X187581103Y-107792528D01*
X187767441Y-107923005D01*
X187973597Y-108019136D01*
X187973606Y-108019140D01*
X188193313Y-108078010D01*
X188193324Y-108078012D01*
X188419922Y-108097837D01*
X188419926Y-108097837D01*
X188646528Y-108078011D01*
X188646536Y-108078010D01*
X188744181Y-108051845D01*
X188329456Y-107183528D01*
X188388443Y-107192871D01*
X188451405Y-107192871D01*
X188545072Y-107178036D01*
X188657969Y-107120512D01*
X188747565Y-107030916D01*
X188780136Y-106966990D01*
X189195560Y-107836771D01*
X189195561Y-107836771D01*
X189258738Y-107792534D01*
X189419584Y-107631687D01*
X189550058Y-107445353D01*
X189646189Y-107239197D01*
X189646193Y-107239188D01*
X189705063Y-107019481D01*
X189705065Y-107019470D01*
X189724890Y-106792873D01*
X189724890Y-106792868D01*
X189705065Y-106566267D01*
X189678897Y-106468612D01*
X188810582Y-106883336D01*
X188824910Y-106792871D01*
X188805089Y-106667723D01*
X188747565Y-106554826D01*
X188657969Y-106465230D01*
X188594040Y-106432656D01*
X189463823Y-106017232D01*
X189419585Y-105954054D01*
X189258744Y-105793213D01*
X189072406Y-105662736D01*
X188866250Y-105566605D01*
X188866241Y-105566601D01*
X188646534Y-105507731D01*
X188646523Y-105507729D01*
X188419926Y-105487905D01*
X188419922Y-105487905D01*
X188193320Y-105507730D01*
X188193316Y-105507730D01*
X188095665Y-105533896D01*
X188510390Y-106402213D01*
X188451405Y-106392871D01*
X188388443Y-106392871D01*
X188294776Y-106407706D01*
X188181879Y-106465230D01*
X188092283Y-106554826D01*
X188059710Y-106618753D01*
X187644285Y-105748970D01*
X187581110Y-105793207D01*
X187581104Y-105793212D01*
X187420266Y-105954050D01*
X187289791Y-106140386D01*
X187262581Y-106198738D01*
X187216408Y-106251177D01*
X187149214Y-106270328D01*
X187082333Y-106250112D01*
X187037817Y-106198736D01*
X187010494Y-106140142D01*
X187010491Y-106140136D01*
X186879969Y-105953729D01*
X186719065Y-105792825D01*
X186532658Y-105662303D01*
X186532656Y-105662302D01*
X186326421Y-105566132D01*
X186326412Y-105566129D01*
X186106621Y-105507237D01*
X186106617Y-105507236D01*
X186106616Y-105507236D01*
X186106615Y-105507235D01*
X186106610Y-105507235D01*
X185879926Y-105487403D01*
X185879922Y-105487403D01*
X185653237Y-105507235D01*
X185653226Y-105507237D01*
X185433435Y-105566129D01*
X185433426Y-105566132D01*
X185227191Y-105662302D01*
X185227189Y-105662303D01*
X185040782Y-105792825D01*
X184879878Y-105953729D01*
X184749356Y-106140136D01*
X184749355Y-106140138D01*
X184722306Y-106198146D01*
X184676133Y-106250585D01*
X184608940Y-106269737D01*
X184542059Y-106249521D01*
X184497542Y-106198146D01*
X184470492Y-106140138D01*
X184470491Y-106140136D01*
X184339969Y-105953729D01*
X184179065Y-105792825D01*
X183992658Y-105662303D01*
X183992656Y-105662302D01*
X183786421Y-105566132D01*
X183786412Y-105566129D01*
X183566621Y-105507237D01*
X183566617Y-105507236D01*
X183566616Y-105507236D01*
X183566615Y-105507235D01*
X183566610Y-105507235D01*
X183339926Y-105487403D01*
X183339922Y-105487403D01*
X183113237Y-105507235D01*
X183113226Y-105507237D01*
X182893435Y-105566129D01*
X182893426Y-105566132D01*
X182687191Y-105662302D01*
X182687189Y-105662303D01*
X182500782Y-105792825D01*
X182339878Y-105953729D01*
X182209356Y-106140136D01*
X182209355Y-106140138D01*
X182182306Y-106198146D01*
X182136133Y-106250585D01*
X182068940Y-106269737D01*
X182002059Y-106249521D01*
X181957542Y-106198146D01*
X181930492Y-106140138D01*
X181930491Y-106140136D01*
X181799969Y-105953729D01*
X181639065Y-105792825D01*
X181452658Y-105662303D01*
X181452656Y-105662302D01*
X181246421Y-105566132D01*
X181246412Y-105566129D01*
X181026621Y-105507237D01*
X181026617Y-105507236D01*
X181026616Y-105507236D01*
X181026615Y-105507235D01*
X181026610Y-105507235D01*
X180799926Y-105487403D01*
X180799922Y-105487403D01*
X180573237Y-105507235D01*
X180573226Y-105507237D01*
X180353435Y-105566129D01*
X180353426Y-105566132D01*
X180147191Y-105662302D01*
X180147189Y-105662303D01*
X179960782Y-105792825D01*
X179799878Y-105953729D01*
X179669356Y-106140136D01*
X179669355Y-106140138D01*
X179642306Y-106198146D01*
X179596133Y-106250585D01*
X179528940Y-106269737D01*
X179462059Y-106249521D01*
X179417542Y-106198146D01*
X179390492Y-106140138D01*
X179390491Y-106140136D01*
X179259969Y-105953729D01*
X179099065Y-105792825D01*
X178912658Y-105662303D01*
X178912656Y-105662302D01*
X178706421Y-105566132D01*
X178706412Y-105566129D01*
X178486621Y-105507237D01*
X178486617Y-105507236D01*
X178486616Y-105507236D01*
X178486615Y-105507235D01*
X178486610Y-105507235D01*
X178259926Y-105487403D01*
X178259922Y-105487403D01*
X178033237Y-105507235D01*
X178033226Y-105507237D01*
X177813435Y-105566129D01*
X177813426Y-105566132D01*
X177607191Y-105662302D01*
X177607189Y-105662303D01*
X177420782Y-105792825D01*
X177259878Y-105953729D01*
X177129356Y-106140136D01*
X177129355Y-106140138D01*
X177102306Y-106198146D01*
X177056133Y-106250585D01*
X176988940Y-106269737D01*
X176922059Y-106249521D01*
X176877542Y-106198146D01*
X176850492Y-106140138D01*
X176850491Y-106140136D01*
X176719969Y-105953729D01*
X176559065Y-105792825D01*
X176372658Y-105662303D01*
X176372656Y-105662302D01*
X176166421Y-105566132D01*
X176166412Y-105566129D01*
X175946621Y-105507237D01*
X175946617Y-105507236D01*
X175946616Y-105507236D01*
X175946615Y-105507235D01*
X175946610Y-105507235D01*
X175719926Y-105487403D01*
X175719922Y-105487403D01*
X175493237Y-105507235D01*
X175493226Y-105507237D01*
X175273435Y-105566129D01*
X175273426Y-105566132D01*
X175067191Y-105662302D01*
X175067189Y-105662303D01*
X174880782Y-105792825D01*
X174719878Y-105953729D01*
X174589356Y-106140136D01*
X174589355Y-106140138D01*
X174562306Y-106198146D01*
X174516133Y-106250585D01*
X174448940Y-106269737D01*
X174382059Y-106249521D01*
X174337542Y-106198146D01*
X174310492Y-106140138D01*
X174310491Y-106140136D01*
X174179969Y-105953729D01*
X174019065Y-105792825D01*
X173832658Y-105662303D01*
X173832656Y-105662302D01*
X173626421Y-105566132D01*
X173626412Y-105566129D01*
X173406621Y-105507237D01*
X173406617Y-105507236D01*
X173406616Y-105507236D01*
X173406615Y-105507235D01*
X173406610Y-105507235D01*
X173179926Y-105487403D01*
X173179922Y-105487403D01*
X172953237Y-105507235D01*
X172953226Y-105507237D01*
X172733435Y-105566129D01*
X172733426Y-105566132D01*
X172527191Y-105662302D01*
X172527189Y-105662303D01*
X172340782Y-105792825D01*
X172179878Y-105953729D01*
X172049356Y-106140136D01*
X172049355Y-106140138D01*
X172022306Y-106198146D01*
X171976133Y-106250585D01*
X171908940Y-106269737D01*
X171842059Y-106249521D01*
X171797542Y-106198146D01*
X171770492Y-106140138D01*
X171770491Y-106140136D01*
X171639969Y-105953729D01*
X171479065Y-105792825D01*
X171292658Y-105662303D01*
X171292656Y-105662302D01*
X171086421Y-105566132D01*
X171086412Y-105566129D01*
X170866621Y-105507237D01*
X170866617Y-105507236D01*
X170866616Y-105507236D01*
X170866615Y-105507235D01*
X170866610Y-105507235D01*
X170639926Y-105487403D01*
X170639922Y-105487403D01*
X170413237Y-105507235D01*
X170413226Y-105507237D01*
X170193435Y-105566129D01*
X170193426Y-105566132D01*
X169987191Y-105662302D01*
X169987189Y-105662303D01*
X169800782Y-105792825D01*
X169639878Y-105953729D01*
X169509356Y-106140136D01*
X169509355Y-106140138D01*
X169413185Y-106346373D01*
X169413182Y-106346382D01*
X169354290Y-106566173D01*
X169354288Y-106566184D01*
X169334456Y-106792869D01*
X169334456Y-106792872D01*
X161784890Y-106792872D01*
X161784890Y-106792868D01*
X161765065Y-106566267D01*
X161738897Y-106468612D01*
X160870582Y-106883336D01*
X160884910Y-106792871D01*
X160865089Y-106667723D01*
X160807565Y-106554826D01*
X160717969Y-106465230D01*
X160654040Y-106432656D01*
X161523823Y-106017232D01*
X161479585Y-105954054D01*
X161318744Y-105793213D01*
X161132406Y-105662736D01*
X160926250Y-105566605D01*
X160926241Y-105566601D01*
X160706534Y-105507731D01*
X160706523Y-105507729D01*
X160479926Y-105487905D01*
X160479922Y-105487905D01*
X160253320Y-105507730D01*
X160253316Y-105507730D01*
X160155665Y-105533896D01*
X160570390Y-106402213D01*
X160511405Y-106392871D01*
X160448443Y-106392871D01*
X160354776Y-106407706D01*
X160241879Y-106465230D01*
X160152283Y-106554826D01*
X160119710Y-106618753D01*
X159704285Y-105748970D01*
X159641110Y-105793207D01*
X159641104Y-105793212D01*
X159480266Y-105954050D01*
X159349791Y-106140386D01*
X159322581Y-106198738D01*
X159276408Y-106251177D01*
X159209214Y-106270328D01*
X159142333Y-106250112D01*
X159097817Y-106198736D01*
X159070494Y-106140142D01*
X159070491Y-106140136D01*
X158939969Y-105953729D01*
X158779065Y-105792825D01*
X158592658Y-105662303D01*
X158592656Y-105662302D01*
X158386421Y-105566132D01*
X158386412Y-105566129D01*
X158166621Y-105507237D01*
X158166617Y-105507236D01*
X158166616Y-105507236D01*
X158166615Y-105507235D01*
X158166610Y-105507235D01*
X157939926Y-105487403D01*
X157939922Y-105487403D01*
X157713237Y-105507235D01*
X157713226Y-105507237D01*
X157493435Y-105566129D01*
X157493426Y-105566132D01*
X157287191Y-105662302D01*
X157287189Y-105662303D01*
X157100782Y-105792825D01*
X156939878Y-105953729D01*
X156809356Y-106140136D01*
X156809355Y-106140138D01*
X156782306Y-106198146D01*
X156736133Y-106250585D01*
X156668940Y-106269737D01*
X156602059Y-106249521D01*
X156557542Y-106198146D01*
X156530492Y-106140138D01*
X156530491Y-106140136D01*
X156399969Y-105953729D01*
X156239065Y-105792825D01*
X156052658Y-105662303D01*
X156052656Y-105662302D01*
X155846421Y-105566132D01*
X155846412Y-105566129D01*
X155626621Y-105507237D01*
X155626617Y-105507236D01*
X155626616Y-105507236D01*
X155626615Y-105507235D01*
X155626610Y-105507235D01*
X155399926Y-105487403D01*
X155399922Y-105487403D01*
X155173237Y-105507235D01*
X155173226Y-105507237D01*
X154953435Y-105566129D01*
X154953426Y-105566132D01*
X154747191Y-105662302D01*
X154747189Y-105662303D01*
X154560782Y-105792825D01*
X154399878Y-105953729D01*
X154269356Y-106140136D01*
X154269355Y-106140138D01*
X154242306Y-106198146D01*
X154196133Y-106250585D01*
X154128940Y-106269737D01*
X154062059Y-106249521D01*
X154017542Y-106198146D01*
X153990492Y-106140138D01*
X153990491Y-106140136D01*
X153859969Y-105953729D01*
X153699065Y-105792825D01*
X153512658Y-105662303D01*
X153512656Y-105662302D01*
X153306421Y-105566132D01*
X153306412Y-105566129D01*
X153086621Y-105507237D01*
X153086617Y-105507236D01*
X153086616Y-105507236D01*
X153086615Y-105507235D01*
X153086610Y-105507235D01*
X152859926Y-105487403D01*
X152859922Y-105487403D01*
X152633237Y-105507235D01*
X152633226Y-105507237D01*
X152413435Y-105566129D01*
X152413426Y-105566132D01*
X152207191Y-105662302D01*
X152207189Y-105662303D01*
X152020782Y-105792825D01*
X151859878Y-105953729D01*
X151729356Y-106140136D01*
X151729355Y-106140138D01*
X151702306Y-106198146D01*
X151656133Y-106250585D01*
X151588940Y-106269737D01*
X151522059Y-106249521D01*
X151477542Y-106198146D01*
X151450492Y-106140138D01*
X151450491Y-106140136D01*
X151319969Y-105953729D01*
X151159065Y-105792825D01*
X150972658Y-105662303D01*
X150972656Y-105662302D01*
X150766421Y-105566132D01*
X150766412Y-105566129D01*
X150546621Y-105507237D01*
X150546617Y-105507236D01*
X150546616Y-105507236D01*
X150546615Y-105507235D01*
X150546610Y-105507235D01*
X150319926Y-105487403D01*
X150319922Y-105487403D01*
X150093237Y-105507235D01*
X150093226Y-105507237D01*
X149873435Y-105566129D01*
X149873426Y-105566132D01*
X149667191Y-105662302D01*
X149667189Y-105662303D01*
X149480782Y-105792825D01*
X149319878Y-105953729D01*
X149189356Y-106140136D01*
X149189355Y-106140138D01*
X149162306Y-106198146D01*
X149116133Y-106250585D01*
X149048940Y-106269737D01*
X148982059Y-106249521D01*
X148937542Y-106198146D01*
X148910492Y-106140138D01*
X148910491Y-106140136D01*
X148779969Y-105953729D01*
X148619065Y-105792825D01*
X148432658Y-105662303D01*
X148432656Y-105662302D01*
X148226421Y-105566132D01*
X148226412Y-105566129D01*
X148006621Y-105507237D01*
X148006617Y-105507236D01*
X148006616Y-105507236D01*
X148006615Y-105507235D01*
X148006610Y-105507235D01*
X147779926Y-105487403D01*
X147779922Y-105487403D01*
X147553237Y-105507235D01*
X147553226Y-105507237D01*
X147333435Y-105566129D01*
X147333426Y-105566132D01*
X147127191Y-105662302D01*
X147127189Y-105662303D01*
X146940782Y-105792825D01*
X146779878Y-105953729D01*
X146649356Y-106140136D01*
X146649355Y-106140138D01*
X146622306Y-106198146D01*
X146576133Y-106250585D01*
X146508940Y-106269737D01*
X146442059Y-106249521D01*
X146397542Y-106198146D01*
X146370492Y-106140138D01*
X146370491Y-106140136D01*
X146239969Y-105953729D01*
X146079065Y-105792825D01*
X145892658Y-105662303D01*
X145892656Y-105662302D01*
X145686421Y-105566132D01*
X145686412Y-105566129D01*
X145466621Y-105507237D01*
X145466617Y-105507236D01*
X145466616Y-105507236D01*
X145466615Y-105507235D01*
X145466610Y-105507235D01*
X145239926Y-105487403D01*
X145239922Y-105487403D01*
X145013237Y-105507235D01*
X145013226Y-105507237D01*
X144793435Y-105566129D01*
X144793426Y-105566132D01*
X144587191Y-105662302D01*
X144587189Y-105662303D01*
X144400782Y-105792825D01*
X144239878Y-105953729D01*
X144109356Y-106140136D01*
X144109355Y-106140138D01*
X144082306Y-106198146D01*
X144036133Y-106250585D01*
X143968940Y-106269737D01*
X143902059Y-106249521D01*
X143857542Y-106198146D01*
X143830492Y-106140138D01*
X143830491Y-106140136D01*
X143699969Y-105953729D01*
X143539065Y-105792825D01*
X143352658Y-105662303D01*
X143352656Y-105662302D01*
X143146421Y-105566132D01*
X143146412Y-105566129D01*
X142926621Y-105507237D01*
X142926617Y-105507236D01*
X142926616Y-105507236D01*
X142926615Y-105507235D01*
X142926610Y-105507235D01*
X142699926Y-105487403D01*
X142699922Y-105487403D01*
X142473237Y-105507235D01*
X142473226Y-105507237D01*
X142253435Y-105566129D01*
X142253426Y-105566132D01*
X142047191Y-105662302D01*
X142047189Y-105662303D01*
X141860782Y-105792825D01*
X141699878Y-105953729D01*
X141569356Y-106140136D01*
X141569355Y-106140138D01*
X141473185Y-106346373D01*
X141473182Y-106346382D01*
X141414290Y-106566173D01*
X141414288Y-106566184D01*
X141394456Y-106792869D01*
X141394456Y-106792872D01*
X129365000Y-106792872D01*
X129365000Y-102982872D01*
X138854456Y-102982872D01*
X138874288Y-103209557D01*
X138874290Y-103209568D01*
X138933182Y-103429359D01*
X138933185Y-103429368D01*
X139029355Y-103635603D01*
X139029356Y-103635605D01*
X139159878Y-103822012D01*
X139320782Y-103982916D01*
X139320785Y-103982918D01*
X139507190Y-104113439D01*
X139713428Y-104209610D01*
X139933232Y-104268506D01*
X140095154Y-104282672D01*
X140159922Y-104288339D01*
X140159924Y-104288339D01*
X140159926Y-104288339D01*
X140216597Y-104283380D01*
X140386616Y-104268506D01*
X140606420Y-104209610D01*
X140812658Y-104113439D01*
X140999063Y-103982918D01*
X141159971Y-103822010D01*
X141290492Y-103635605D01*
X141317542Y-103577595D01*
X141363714Y-103525156D01*
X141430907Y-103506004D01*
X141497789Y-103526219D01*
X141542306Y-103577596D01*
X141569353Y-103635599D01*
X141569356Y-103635605D01*
X141699878Y-103822012D01*
X141860782Y-103982916D01*
X141860785Y-103982918D01*
X142047190Y-104113439D01*
X142253428Y-104209610D01*
X142473232Y-104268506D01*
X142635154Y-104282672D01*
X142699922Y-104288339D01*
X142699924Y-104288339D01*
X142699926Y-104288339D01*
X142756597Y-104283380D01*
X142926616Y-104268506D01*
X143146420Y-104209610D01*
X143352658Y-104113439D01*
X143539063Y-103982918D01*
X143699971Y-103822010D01*
X143830492Y-103635605D01*
X143857542Y-103577595D01*
X143903714Y-103525156D01*
X143970907Y-103506004D01*
X144037789Y-103526219D01*
X144082306Y-103577596D01*
X144109353Y-103635599D01*
X144109356Y-103635605D01*
X144239878Y-103822012D01*
X144400782Y-103982916D01*
X144400785Y-103982918D01*
X144587190Y-104113439D01*
X144793428Y-104209610D01*
X145013232Y-104268506D01*
X145175154Y-104282672D01*
X145239922Y-104288339D01*
X145239924Y-104288339D01*
X145239926Y-104288339D01*
X145296597Y-104283380D01*
X145466616Y-104268506D01*
X145686420Y-104209610D01*
X145892658Y-104113439D01*
X146079063Y-103982918D01*
X146239971Y-103822010D01*
X146370492Y-103635605D01*
X146397542Y-103577595D01*
X146443714Y-103525156D01*
X146510907Y-103506004D01*
X146577789Y-103526219D01*
X146622306Y-103577596D01*
X146649353Y-103635599D01*
X146649356Y-103635605D01*
X146779878Y-103822012D01*
X146940782Y-103982916D01*
X146940785Y-103982918D01*
X147127190Y-104113439D01*
X147333428Y-104209610D01*
X147553232Y-104268506D01*
X147715154Y-104282672D01*
X147779922Y-104288339D01*
X147779924Y-104288339D01*
X147779926Y-104288339D01*
X147836597Y-104283380D01*
X148006616Y-104268506D01*
X148226420Y-104209610D01*
X148432658Y-104113439D01*
X148619063Y-103982918D01*
X148779971Y-103822010D01*
X148910492Y-103635605D01*
X148937542Y-103577595D01*
X148983714Y-103525156D01*
X149050907Y-103506004D01*
X149117789Y-103526219D01*
X149162306Y-103577596D01*
X149189353Y-103635599D01*
X149189356Y-103635605D01*
X149319878Y-103822012D01*
X149480782Y-103982916D01*
X149480785Y-103982918D01*
X149667190Y-104113439D01*
X149873428Y-104209610D01*
X150093232Y-104268506D01*
X150255154Y-104282672D01*
X150319922Y-104288339D01*
X150319924Y-104288339D01*
X150319926Y-104288339D01*
X150376597Y-104283380D01*
X150546616Y-104268506D01*
X150766420Y-104209610D01*
X150972658Y-104113439D01*
X151159063Y-103982918D01*
X151319971Y-103822010D01*
X151450492Y-103635605D01*
X151477542Y-103577595D01*
X151523714Y-103525156D01*
X151590907Y-103506004D01*
X151657789Y-103526219D01*
X151702306Y-103577596D01*
X151729353Y-103635599D01*
X151729356Y-103635605D01*
X151859878Y-103822012D01*
X152020782Y-103982916D01*
X152020785Y-103982918D01*
X152207190Y-104113439D01*
X152413428Y-104209610D01*
X152633232Y-104268506D01*
X152795154Y-104282672D01*
X152859922Y-104288339D01*
X152859924Y-104288339D01*
X152859926Y-104288339D01*
X152916597Y-104283380D01*
X153086616Y-104268506D01*
X153306420Y-104209610D01*
X153512658Y-104113439D01*
X153699063Y-103982918D01*
X153859971Y-103822010D01*
X153990492Y-103635605D01*
X154017542Y-103577595D01*
X154063714Y-103525156D01*
X154130907Y-103506004D01*
X154197789Y-103526219D01*
X154242306Y-103577596D01*
X154269353Y-103635599D01*
X154269356Y-103635605D01*
X154399878Y-103822012D01*
X154560782Y-103982916D01*
X154560785Y-103982918D01*
X154747190Y-104113439D01*
X154953428Y-104209610D01*
X155173232Y-104268506D01*
X155335154Y-104282672D01*
X155399922Y-104288339D01*
X155399924Y-104288339D01*
X155399926Y-104288339D01*
X155456597Y-104283380D01*
X155626616Y-104268506D01*
X155846420Y-104209610D01*
X156052658Y-104113439D01*
X156239063Y-103982918D01*
X156399971Y-103822010D01*
X156530492Y-103635605D01*
X156557542Y-103577595D01*
X156603714Y-103525156D01*
X156670907Y-103506004D01*
X156737789Y-103526219D01*
X156782306Y-103577596D01*
X156809353Y-103635599D01*
X156809356Y-103635605D01*
X156939878Y-103822012D01*
X157100782Y-103982916D01*
X157100785Y-103982918D01*
X157287190Y-104113439D01*
X157493428Y-104209610D01*
X157713232Y-104268506D01*
X157875154Y-104282672D01*
X157939922Y-104288339D01*
X157939924Y-104288339D01*
X157939926Y-104288339D01*
X157996597Y-104283380D01*
X158166616Y-104268506D01*
X158386420Y-104209610D01*
X158592658Y-104113439D01*
X158779063Y-103982918D01*
X158939971Y-103822010D01*
X159070492Y-103635605D01*
X159166663Y-103429367D01*
X159225559Y-103209563D01*
X159245392Y-102982872D01*
X166794456Y-102982872D01*
X166814288Y-103209557D01*
X166814290Y-103209568D01*
X166873182Y-103429359D01*
X166873185Y-103429368D01*
X166969355Y-103635603D01*
X166969356Y-103635605D01*
X167099878Y-103822012D01*
X167260782Y-103982916D01*
X167260785Y-103982918D01*
X167447190Y-104113439D01*
X167653428Y-104209610D01*
X167873232Y-104268506D01*
X168035154Y-104282672D01*
X168099922Y-104288339D01*
X168099924Y-104288339D01*
X168099926Y-104288339D01*
X168156597Y-104283380D01*
X168326616Y-104268506D01*
X168546420Y-104209610D01*
X168752658Y-104113439D01*
X168939063Y-103982918D01*
X169099971Y-103822010D01*
X169230492Y-103635605D01*
X169257542Y-103577595D01*
X169303714Y-103525156D01*
X169370907Y-103506004D01*
X169437789Y-103526219D01*
X169482306Y-103577596D01*
X169509353Y-103635599D01*
X169509356Y-103635605D01*
X169639878Y-103822012D01*
X169800782Y-103982916D01*
X169800785Y-103982918D01*
X169987190Y-104113439D01*
X170193428Y-104209610D01*
X170413232Y-104268506D01*
X170575154Y-104282672D01*
X170639922Y-104288339D01*
X170639924Y-104288339D01*
X170639926Y-104288339D01*
X170696597Y-104283380D01*
X170866616Y-104268506D01*
X171086420Y-104209610D01*
X171292658Y-104113439D01*
X171479063Y-103982918D01*
X171639971Y-103822010D01*
X171770492Y-103635605D01*
X171797542Y-103577595D01*
X171843714Y-103525156D01*
X171910907Y-103506004D01*
X171977789Y-103526219D01*
X172022306Y-103577596D01*
X172049353Y-103635599D01*
X172049356Y-103635605D01*
X172179878Y-103822012D01*
X172340782Y-103982916D01*
X172340785Y-103982918D01*
X172527190Y-104113439D01*
X172733428Y-104209610D01*
X172953232Y-104268506D01*
X173115154Y-104282672D01*
X173179922Y-104288339D01*
X173179924Y-104288339D01*
X173179926Y-104288339D01*
X173236597Y-104283380D01*
X173406616Y-104268506D01*
X173626420Y-104209610D01*
X173832658Y-104113439D01*
X174019063Y-103982918D01*
X174179971Y-103822010D01*
X174310492Y-103635605D01*
X174337542Y-103577595D01*
X174383714Y-103525156D01*
X174450907Y-103506004D01*
X174517789Y-103526219D01*
X174562306Y-103577596D01*
X174589353Y-103635599D01*
X174589356Y-103635605D01*
X174719878Y-103822012D01*
X174880782Y-103982916D01*
X174880785Y-103982918D01*
X175067190Y-104113439D01*
X175273428Y-104209610D01*
X175493232Y-104268506D01*
X175655154Y-104282672D01*
X175719922Y-104288339D01*
X175719924Y-104288339D01*
X175719926Y-104288339D01*
X175776597Y-104283380D01*
X175946616Y-104268506D01*
X176166420Y-104209610D01*
X176372658Y-104113439D01*
X176559063Y-103982918D01*
X176719971Y-103822010D01*
X176850492Y-103635605D01*
X176877542Y-103577595D01*
X176923714Y-103525156D01*
X176990907Y-103506004D01*
X177057789Y-103526219D01*
X177102306Y-103577596D01*
X177129353Y-103635599D01*
X177129356Y-103635605D01*
X177259878Y-103822012D01*
X177420782Y-103982916D01*
X177420785Y-103982918D01*
X177607190Y-104113439D01*
X177813428Y-104209610D01*
X178033232Y-104268506D01*
X178195154Y-104282672D01*
X178259922Y-104288339D01*
X178259924Y-104288339D01*
X178259926Y-104288339D01*
X178316597Y-104283380D01*
X178486616Y-104268506D01*
X178706420Y-104209610D01*
X178912658Y-104113439D01*
X179099063Y-103982918D01*
X179259971Y-103822010D01*
X179390492Y-103635605D01*
X179417542Y-103577595D01*
X179463714Y-103525156D01*
X179530907Y-103506004D01*
X179597789Y-103526219D01*
X179642306Y-103577596D01*
X179669353Y-103635599D01*
X179669356Y-103635605D01*
X179799878Y-103822012D01*
X179960782Y-103982916D01*
X179960785Y-103982918D01*
X180147190Y-104113439D01*
X180353428Y-104209610D01*
X180573232Y-104268506D01*
X180735154Y-104282672D01*
X180799922Y-104288339D01*
X180799924Y-104288339D01*
X180799926Y-104288339D01*
X180856597Y-104283380D01*
X181026616Y-104268506D01*
X181246420Y-104209610D01*
X181452658Y-104113439D01*
X181639063Y-103982918D01*
X181799971Y-103822010D01*
X181930492Y-103635605D01*
X181957542Y-103577595D01*
X182003714Y-103525156D01*
X182070907Y-103506004D01*
X182137789Y-103526219D01*
X182182306Y-103577596D01*
X182209353Y-103635599D01*
X182209356Y-103635605D01*
X182339878Y-103822012D01*
X182500782Y-103982916D01*
X182500785Y-103982918D01*
X182687190Y-104113439D01*
X182893428Y-104209610D01*
X183113232Y-104268506D01*
X183275154Y-104282672D01*
X183339922Y-104288339D01*
X183339924Y-104288339D01*
X183339926Y-104288339D01*
X183396597Y-104283380D01*
X183566616Y-104268506D01*
X183786420Y-104209610D01*
X183992658Y-104113439D01*
X184179063Y-103982918D01*
X184339971Y-103822010D01*
X184470492Y-103635605D01*
X184497542Y-103577595D01*
X184543714Y-103525156D01*
X184610907Y-103506004D01*
X184677789Y-103526219D01*
X184722306Y-103577596D01*
X184749353Y-103635599D01*
X184749356Y-103635605D01*
X184879878Y-103822012D01*
X185040782Y-103982916D01*
X185040785Y-103982918D01*
X185227190Y-104113439D01*
X185433428Y-104209610D01*
X185653232Y-104268506D01*
X185815154Y-104282672D01*
X185879922Y-104288339D01*
X185879924Y-104288339D01*
X185879926Y-104288339D01*
X185936597Y-104283380D01*
X186106616Y-104268506D01*
X186326420Y-104209610D01*
X186532658Y-104113439D01*
X186719063Y-103982918D01*
X186879971Y-103822010D01*
X187010492Y-103635605D01*
X187106663Y-103429367D01*
X187165559Y-103209563D01*
X187185392Y-102982871D01*
X187165559Y-102756179D01*
X187106663Y-102536375D01*
X187010492Y-102330137D01*
X186879971Y-102143732D01*
X186879969Y-102143729D01*
X186719065Y-101982825D01*
X186532658Y-101852303D01*
X186532656Y-101852302D01*
X186326421Y-101756132D01*
X186326412Y-101756129D01*
X186106621Y-101697237D01*
X186106617Y-101697236D01*
X186106616Y-101697236D01*
X186106615Y-101697235D01*
X186106610Y-101697235D01*
X185879926Y-101677403D01*
X185879922Y-101677403D01*
X185653237Y-101697235D01*
X185653226Y-101697237D01*
X185433435Y-101756129D01*
X185433426Y-101756132D01*
X185227191Y-101852302D01*
X185227189Y-101852303D01*
X185040782Y-101982825D01*
X184879878Y-102143729D01*
X184749356Y-102330136D01*
X184749355Y-102330138D01*
X184722306Y-102388146D01*
X184676133Y-102440585D01*
X184608940Y-102459737D01*
X184542059Y-102439521D01*
X184497542Y-102388146D01*
X184470492Y-102330138D01*
X184470491Y-102330136D01*
X184339969Y-102143729D01*
X184179065Y-101982825D01*
X183992658Y-101852303D01*
X183992656Y-101852302D01*
X183786421Y-101756132D01*
X183786412Y-101756129D01*
X183566621Y-101697237D01*
X183566617Y-101697236D01*
X183566616Y-101697236D01*
X183566615Y-101697235D01*
X183566610Y-101697235D01*
X183339926Y-101677403D01*
X183339922Y-101677403D01*
X183113237Y-101697235D01*
X183113226Y-101697237D01*
X182893435Y-101756129D01*
X182893426Y-101756132D01*
X182687191Y-101852302D01*
X182687189Y-101852303D01*
X182500782Y-101982825D01*
X182339878Y-102143729D01*
X182209356Y-102330136D01*
X182209355Y-102330138D01*
X182182306Y-102388146D01*
X182136133Y-102440585D01*
X182068940Y-102459737D01*
X182002059Y-102439521D01*
X181957542Y-102388146D01*
X181930492Y-102330138D01*
X181930491Y-102330136D01*
X181799969Y-102143729D01*
X181639065Y-101982825D01*
X181452658Y-101852303D01*
X181452656Y-101852302D01*
X181246421Y-101756132D01*
X181246412Y-101756129D01*
X181026621Y-101697237D01*
X181026617Y-101697236D01*
X181026616Y-101697236D01*
X181026615Y-101697235D01*
X181026610Y-101697235D01*
X180799926Y-101677403D01*
X180799922Y-101677403D01*
X180573237Y-101697235D01*
X180573226Y-101697237D01*
X180353435Y-101756129D01*
X180353426Y-101756132D01*
X180147191Y-101852302D01*
X180147189Y-101852303D01*
X179960782Y-101982825D01*
X179799878Y-102143729D01*
X179669356Y-102330136D01*
X179669355Y-102330138D01*
X179642306Y-102388146D01*
X179596133Y-102440585D01*
X179528940Y-102459737D01*
X179462059Y-102439521D01*
X179417542Y-102388146D01*
X179390492Y-102330138D01*
X179390491Y-102330136D01*
X179259969Y-102143729D01*
X179099065Y-101982825D01*
X178912658Y-101852303D01*
X178912656Y-101852302D01*
X178706421Y-101756132D01*
X178706412Y-101756129D01*
X178486621Y-101697237D01*
X178486617Y-101697236D01*
X178486616Y-101697236D01*
X178486615Y-101697235D01*
X178486610Y-101697235D01*
X178259926Y-101677403D01*
X178259922Y-101677403D01*
X178033237Y-101697235D01*
X178033226Y-101697237D01*
X177813435Y-101756129D01*
X177813426Y-101756132D01*
X177607191Y-101852302D01*
X177607189Y-101852303D01*
X177420782Y-101982825D01*
X177259878Y-102143729D01*
X177129356Y-102330136D01*
X177129355Y-102330138D01*
X177102306Y-102388146D01*
X177056133Y-102440585D01*
X176988940Y-102459737D01*
X176922059Y-102439521D01*
X176877542Y-102388146D01*
X176850492Y-102330138D01*
X176850491Y-102330136D01*
X176719969Y-102143729D01*
X176559065Y-101982825D01*
X176372658Y-101852303D01*
X176372656Y-101852302D01*
X176166421Y-101756132D01*
X176166412Y-101756129D01*
X175946621Y-101697237D01*
X175946617Y-101697236D01*
X175946616Y-101697236D01*
X175946615Y-101697235D01*
X175946610Y-101697235D01*
X175719926Y-101677403D01*
X175719922Y-101677403D01*
X175493237Y-101697235D01*
X175493226Y-101697237D01*
X175273435Y-101756129D01*
X175273426Y-101756132D01*
X175067191Y-101852302D01*
X175067189Y-101852303D01*
X174880782Y-101982825D01*
X174719878Y-102143729D01*
X174589356Y-102330136D01*
X174589355Y-102330138D01*
X174562306Y-102388146D01*
X174516133Y-102440585D01*
X174448940Y-102459737D01*
X174382059Y-102439521D01*
X174337542Y-102388146D01*
X174310492Y-102330138D01*
X174310491Y-102330136D01*
X174179969Y-102143729D01*
X174019065Y-101982825D01*
X173832658Y-101852303D01*
X173832656Y-101852302D01*
X173626421Y-101756132D01*
X173626412Y-101756129D01*
X173406621Y-101697237D01*
X173406617Y-101697236D01*
X173406616Y-101697236D01*
X173406615Y-101697235D01*
X173406610Y-101697235D01*
X173179926Y-101677403D01*
X173179922Y-101677403D01*
X172953237Y-101697235D01*
X172953226Y-101697237D01*
X172733435Y-101756129D01*
X172733426Y-101756132D01*
X172527191Y-101852302D01*
X172527189Y-101852303D01*
X172340782Y-101982825D01*
X172179878Y-102143729D01*
X172049356Y-102330136D01*
X172049355Y-102330138D01*
X172022306Y-102388146D01*
X171976133Y-102440585D01*
X171908940Y-102459737D01*
X171842059Y-102439521D01*
X171797542Y-102388146D01*
X171770492Y-102330138D01*
X171770491Y-102330136D01*
X171639969Y-102143729D01*
X171479065Y-101982825D01*
X171292658Y-101852303D01*
X171292656Y-101852302D01*
X171086421Y-101756132D01*
X171086412Y-101756129D01*
X170866621Y-101697237D01*
X170866617Y-101697236D01*
X170866616Y-101697236D01*
X170866615Y-101697235D01*
X170866610Y-101697235D01*
X170639926Y-101677403D01*
X170639922Y-101677403D01*
X170413237Y-101697235D01*
X170413226Y-101697237D01*
X170193435Y-101756129D01*
X170193426Y-101756132D01*
X169987191Y-101852302D01*
X169987189Y-101852303D01*
X169800782Y-101982825D01*
X169639878Y-102143729D01*
X169509356Y-102330136D01*
X169509355Y-102330138D01*
X169482306Y-102388146D01*
X169436133Y-102440585D01*
X169368940Y-102459737D01*
X169302059Y-102439521D01*
X169257542Y-102388146D01*
X169230492Y-102330138D01*
X169230491Y-102330136D01*
X169099969Y-102143729D01*
X168939065Y-101982825D01*
X168752658Y-101852303D01*
X168752656Y-101852302D01*
X168546421Y-101756132D01*
X168546412Y-101756129D01*
X168326621Y-101697237D01*
X168326617Y-101697236D01*
X168326616Y-101697236D01*
X168326615Y-101697235D01*
X168326610Y-101697235D01*
X168099926Y-101677403D01*
X168099922Y-101677403D01*
X167873237Y-101697235D01*
X167873226Y-101697237D01*
X167653435Y-101756129D01*
X167653426Y-101756132D01*
X167447191Y-101852302D01*
X167447189Y-101852303D01*
X167260782Y-101982825D01*
X167099878Y-102143729D01*
X166969356Y-102330136D01*
X166969355Y-102330138D01*
X166873185Y-102536373D01*
X166873182Y-102536382D01*
X166814290Y-102756173D01*
X166814288Y-102756184D01*
X166794456Y-102982869D01*
X166794456Y-102982872D01*
X159245392Y-102982872D01*
X159245392Y-102982871D01*
X159225559Y-102756179D01*
X159166663Y-102536375D01*
X159070492Y-102330137D01*
X158939971Y-102143732D01*
X158939969Y-102143729D01*
X158779065Y-101982825D01*
X158592658Y-101852303D01*
X158592656Y-101852302D01*
X158386421Y-101756132D01*
X158386412Y-101756129D01*
X158166621Y-101697237D01*
X158166617Y-101697236D01*
X158166616Y-101697236D01*
X158166615Y-101697235D01*
X158166610Y-101697235D01*
X157939926Y-101677403D01*
X157939922Y-101677403D01*
X157713237Y-101697235D01*
X157713226Y-101697237D01*
X157493435Y-101756129D01*
X157493426Y-101756132D01*
X157287191Y-101852302D01*
X157287189Y-101852303D01*
X157100782Y-101982825D01*
X156939878Y-102143729D01*
X156809356Y-102330136D01*
X156809355Y-102330138D01*
X156782306Y-102388146D01*
X156736133Y-102440585D01*
X156668940Y-102459737D01*
X156602059Y-102439521D01*
X156557542Y-102388146D01*
X156530492Y-102330138D01*
X156530491Y-102330136D01*
X156399969Y-102143729D01*
X156239065Y-101982825D01*
X156052658Y-101852303D01*
X156052656Y-101852302D01*
X155846421Y-101756132D01*
X155846412Y-101756129D01*
X155626621Y-101697237D01*
X155626617Y-101697236D01*
X155626616Y-101697236D01*
X155626615Y-101697235D01*
X155626610Y-101697235D01*
X155399926Y-101677403D01*
X155399922Y-101677403D01*
X155173237Y-101697235D01*
X155173226Y-101697237D01*
X154953435Y-101756129D01*
X154953426Y-101756132D01*
X154747191Y-101852302D01*
X154747189Y-101852303D01*
X154560782Y-101982825D01*
X154399878Y-102143729D01*
X154269356Y-102330136D01*
X154269355Y-102330138D01*
X154242306Y-102388146D01*
X154196133Y-102440585D01*
X154128940Y-102459737D01*
X154062059Y-102439521D01*
X154017542Y-102388146D01*
X153990492Y-102330138D01*
X153990491Y-102330136D01*
X153859969Y-102143729D01*
X153699065Y-101982825D01*
X153512658Y-101852303D01*
X153512656Y-101852302D01*
X153306421Y-101756132D01*
X153306412Y-101756129D01*
X153086621Y-101697237D01*
X153086617Y-101697236D01*
X153086616Y-101697236D01*
X153086615Y-101697235D01*
X153086610Y-101697235D01*
X152859926Y-101677403D01*
X152859922Y-101677403D01*
X152633237Y-101697235D01*
X152633226Y-101697237D01*
X152413435Y-101756129D01*
X152413426Y-101756132D01*
X152207191Y-101852302D01*
X152207189Y-101852303D01*
X152020782Y-101982825D01*
X151859878Y-102143729D01*
X151729356Y-102330136D01*
X151729355Y-102330138D01*
X151702306Y-102388146D01*
X151656133Y-102440585D01*
X151588940Y-102459737D01*
X151522059Y-102439521D01*
X151477542Y-102388146D01*
X151450492Y-102330138D01*
X151450491Y-102330136D01*
X151319969Y-102143729D01*
X151159065Y-101982825D01*
X150972658Y-101852303D01*
X150972656Y-101852302D01*
X150766421Y-101756132D01*
X150766412Y-101756129D01*
X150546621Y-101697237D01*
X150546617Y-101697236D01*
X150546616Y-101697236D01*
X150546615Y-101697235D01*
X150546610Y-101697235D01*
X150319926Y-101677403D01*
X150319922Y-101677403D01*
X150093237Y-101697235D01*
X150093226Y-101697237D01*
X149873435Y-101756129D01*
X149873426Y-101756132D01*
X149667191Y-101852302D01*
X149667189Y-101852303D01*
X149480782Y-101982825D01*
X149319878Y-102143729D01*
X149189356Y-102330136D01*
X149189355Y-102330138D01*
X149162306Y-102388146D01*
X149116133Y-102440585D01*
X149048940Y-102459737D01*
X148982059Y-102439521D01*
X148937542Y-102388146D01*
X148910492Y-102330138D01*
X148910491Y-102330136D01*
X148779969Y-102143729D01*
X148619065Y-101982825D01*
X148432658Y-101852303D01*
X148432656Y-101852302D01*
X148226421Y-101756132D01*
X148226412Y-101756129D01*
X148006621Y-101697237D01*
X148006617Y-101697236D01*
X148006616Y-101697236D01*
X148006615Y-101697235D01*
X148006610Y-101697235D01*
X147779926Y-101677403D01*
X147779922Y-101677403D01*
X147553237Y-101697235D01*
X147553226Y-101697237D01*
X147333435Y-101756129D01*
X147333426Y-101756132D01*
X147127191Y-101852302D01*
X147127189Y-101852303D01*
X146940782Y-101982825D01*
X146779878Y-102143729D01*
X146649356Y-102330136D01*
X146649355Y-102330138D01*
X146622306Y-102388146D01*
X146576133Y-102440585D01*
X146508940Y-102459737D01*
X146442059Y-102439521D01*
X146397542Y-102388146D01*
X146370492Y-102330138D01*
X146370491Y-102330136D01*
X146239969Y-102143729D01*
X146079065Y-101982825D01*
X145892658Y-101852303D01*
X145892656Y-101852302D01*
X145686421Y-101756132D01*
X145686412Y-101756129D01*
X145466621Y-101697237D01*
X145466617Y-101697236D01*
X145466616Y-101697236D01*
X145466615Y-101697235D01*
X145466610Y-101697235D01*
X145239926Y-101677403D01*
X145239922Y-101677403D01*
X145013237Y-101697235D01*
X145013226Y-101697237D01*
X144793435Y-101756129D01*
X144793426Y-101756132D01*
X144587191Y-101852302D01*
X144587189Y-101852303D01*
X144400782Y-101982825D01*
X144239878Y-102143729D01*
X144109356Y-102330136D01*
X144109355Y-102330138D01*
X144082306Y-102388146D01*
X144036133Y-102440585D01*
X143968940Y-102459737D01*
X143902059Y-102439521D01*
X143857542Y-102388146D01*
X143830492Y-102330138D01*
X143830491Y-102330136D01*
X143699969Y-102143729D01*
X143539065Y-101982825D01*
X143352658Y-101852303D01*
X143352656Y-101852302D01*
X143146421Y-101756132D01*
X143146412Y-101756129D01*
X142926621Y-101697237D01*
X142926617Y-101697236D01*
X142926616Y-101697236D01*
X142926615Y-101697235D01*
X142926610Y-101697235D01*
X142699926Y-101677403D01*
X142699922Y-101677403D01*
X142473237Y-101697235D01*
X142473226Y-101697237D01*
X142253435Y-101756129D01*
X142253426Y-101756132D01*
X142047191Y-101852302D01*
X142047189Y-101852303D01*
X141860782Y-101982825D01*
X141699878Y-102143729D01*
X141569356Y-102330136D01*
X141569355Y-102330138D01*
X141542306Y-102388146D01*
X141496133Y-102440585D01*
X141428940Y-102459737D01*
X141362059Y-102439521D01*
X141317542Y-102388146D01*
X141290492Y-102330138D01*
X141290491Y-102330136D01*
X141159969Y-102143729D01*
X140999065Y-101982825D01*
X140812658Y-101852303D01*
X140812656Y-101852302D01*
X140606421Y-101756132D01*
X140606412Y-101756129D01*
X140386621Y-101697237D01*
X140386617Y-101697236D01*
X140386616Y-101697236D01*
X140386615Y-101697235D01*
X140386610Y-101697235D01*
X140159926Y-101677403D01*
X140159922Y-101677403D01*
X139933237Y-101697235D01*
X139933226Y-101697237D01*
X139713435Y-101756129D01*
X139713426Y-101756132D01*
X139507191Y-101852302D01*
X139507189Y-101852303D01*
X139320782Y-101982825D01*
X139159878Y-102143729D01*
X139029356Y-102330136D01*
X139029355Y-102330138D01*
X138933185Y-102536373D01*
X138933182Y-102536382D01*
X138874290Y-102756173D01*
X138874288Y-102756184D01*
X138854456Y-102982869D01*
X138854456Y-102982872D01*
X129365000Y-102982872D01*
X129365000Y-95362872D01*
X138854456Y-95362872D01*
X138874288Y-95589557D01*
X138874290Y-95589568D01*
X138933182Y-95809359D01*
X138933185Y-95809368D01*
X139029355Y-96015603D01*
X139029356Y-96015605D01*
X139159878Y-96202012D01*
X139320782Y-96362916D01*
X139320785Y-96362918D01*
X139507190Y-96493439D01*
X139713428Y-96589610D01*
X139933232Y-96648506D01*
X140095154Y-96662672D01*
X140159922Y-96668339D01*
X140159924Y-96668339D01*
X140159926Y-96668339D01*
X140216597Y-96663380D01*
X140386616Y-96648506D01*
X140606420Y-96589610D01*
X140812658Y-96493439D01*
X140999063Y-96362918D01*
X141159971Y-96202010D01*
X141290492Y-96015605D01*
X141317542Y-95957595D01*
X141363714Y-95905156D01*
X141430907Y-95886004D01*
X141497789Y-95906219D01*
X141542306Y-95957596D01*
X141569353Y-96015599D01*
X141569356Y-96015605D01*
X141699878Y-96202012D01*
X141860782Y-96362916D01*
X141860785Y-96362918D01*
X142047190Y-96493439D01*
X142253428Y-96589610D01*
X142473232Y-96648506D01*
X142635154Y-96662672D01*
X142699922Y-96668339D01*
X142699924Y-96668339D01*
X142699926Y-96668339D01*
X142756597Y-96663380D01*
X142926616Y-96648506D01*
X143146420Y-96589610D01*
X143352658Y-96493439D01*
X143539063Y-96362918D01*
X143699971Y-96202010D01*
X143830492Y-96015605D01*
X143857542Y-95957595D01*
X143903714Y-95905156D01*
X143970907Y-95886004D01*
X144037789Y-95906219D01*
X144082306Y-95957596D01*
X144109353Y-96015599D01*
X144109356Y-96015605D01*
X144239878Y-96202012D01*
X144400782Y-96362916D01*
X144400785Y-96362918D01*
X144587190Y-96493439D01*
X144793428Y-96589610D01*
X145013232Y-96648506D01*
X145175154Y-96662672D01*
X145239922Y-96668339D01*
X145239924Y-96668339D01*
X145239926Y-96668339D01*
X145296597Y-96663380D01*
X145466616Y-96648506D01*
X145686420Y-96589610D01*
X145892658Y-96493439D01*
X146079063Y-96362918D01*
X146239971Y-96202010D01*
X146370492Y-96015605D01*
X146397542Y-95957595D01*
X146443714Y-95905156D01*
X146510907Y-95886004D01*
X146577789Y-95906219D01*
X146622306Y-95957596D01*
X146649353Y-96015599D01*
X146649356Y-96015605D01*
X146779878Y-96202012D01*
X146940782Y-96362916D01*
X146940785Y-96362918D01*
X147127190Y-96493439D01*
X147333428Y-96589610D01*
X147553232Y-96648506D01*
X147715154Y-96662672D01*
X147779922Y-96668339D01*
X147779924Y-96668339D01*
X147779926Y-96668339D01*
X147836597Y-96663380D01*
X148006616Y-96648506D01*
X148226420Y-96589610D01*
X148432658Y-96493439D01*
X148619063Y-96362918D01*
X148779971Y-96202010D01*
X148910492Y-96015605D01*
X148937542Y-95957595D01*
X148983714Y-95905156D01*
X149050907Y-95886004D01*
X149117789Y-95906219D01*
X149162306Y-95957596D01*
X149189353Y-96015599D01*
X149189356Y-96015605D01*
X149319878Y-96202012D01*
X149480782Y-96362916D01*
X149480785Y-96362918D01*
X149667190Y-96493439D01*
X149873428Y-96589610D01*
X150093232Y-96648506D01*
X150255154Y-96662672D01*
X150319922Y-96668339D01*
X150319924Y-96668339D01*
X150319926Y-96668339D01*
X150376597Y-96663380D01*
X150546616Y-96648506D01*
X150766420Y-96589610D01*
X150972658Y-96493439D01*
X151159063Y-96362918D01*
X151319971Y-96202010D01*
X151450492Y-96015605D01*
X151477542Y-95957595D01*
X151523714Y-95905156D01*
X151590907Y-95886004D01*
X151657789Y-95906219D01*
X151702306Y-95957596D01*
X151729353Y-96015599D01*
X151729356Y-96015605D01*
X151859878Y-96202012D01*
X152020782Y-96362916D01*
X152020785Y-96362918D01*
X152207190Y-96493439D01*
X152413428Y-96589610D01*
X152633232Y-96648506D01*
X152795154Y-96662672D01*
X152859922Y-96668339D01*
X152859924Y-96668339D01*
X152859926Y-96668339D01*
X152916597Y-96663380D01*
X153086616Y-96648506D01*
X153306420Y-96589610D01*
X153512658Y-96493439D01*
X153699063Y-96362918D01*
X153859971Y-96202010D01*
X153990492Y-96015605D01*
X154017542Y-95957595D01*
X154063714Y-95905156D01*
X154130907Y-95886004D01*
X154197789Y-95906219D01*
X154242306Y-95957596D01*
X154269353Y-96015599D01*
X154269356Y-96015605D01*
X154399878Y-96202012D01*
X154560782Y-96362916D01*
X154560785Y-96362918D01*
X154747190Y-96493439D01*
X154953428Y-96589610D01*
X155173232Y-96648506D01*
X155335154Y-96662672D01*
X155399922Y-96668339D01*
X155399924Y-96668339D01*
X155399926Y-96668339D01*
X155456597Y-96663380D01*
X155626616Y-96648506D01*
X155846420Y-96589610D01*
X156052658Y-96493439D01*
X156239063Y-96362918D01*
X156399971Y-96202010D01*
X156530492Y-96015605D01*
X156557542Y-95957595D01*
X156603714Y-95905156D01*
X156670907Y-95886004D01*
X156737789Y-95906219D01*
X156782306Y-95957596D01*
X156809353Y-96015599D01*
X156809356Y-96015605D01*
X156939878Y-96202012D01*
X157100782Y-96362916D01*
X157100785Y-96362918D01*
X157287190Y-96493439D01*
X157493428Y-96589610D01*
X157713232Y-96648506D01*
X157875154Y-96662672D01*
X157939922Y-96668339D01*
X157939924Y-96668339D01*
X157939926Y-96668339D01*
X157996597Y-96663380D01*
X158166616Y-96648506D01*
X158386420Y-96589610D01*
X158592658Y-96493439D01*
X158779063Y-96362918D01*
X158939971Y-96202010D01*
X159070492Y-96015605D01*
X159166663Y-95809367D01*
X159225559Y-95589563D01*
X159245392Y-95362871D01*
X159225559Y-95136179D01*
X159166663Y-94916375D01*
X159070492Y-94710137D01*
X158939971Y-94523732D01*
X158939969Y-94523729D01*
X158779065Y-94362825D01*
X158592658Y-94232303D01*
X158592656Y-94232302D01*
X158386421Y-94136132D01*
X158386412Y-94136129D01*
X158166621Y-94077237D01*
X158166617Y-94077236D01*
X158166616Y-94077236D01*
X158166615Y-94077235D01*
X158166610Y-94077235D01*
X157939926Y-94057403D01*
X157939922Y-94057403D01*
X157713237Y-94077235D01*
X157713226Y-94077237D01*
X157493435Y-94136129D01*
X157493426Y-94136132D01*
X157287191Y-94232302D01*
X157287189Y-94232303D01*
X157100782Y-94362825D01*
X156939878Y-94523729D01*
X156809356Y-94710136D01*
X156809355Y-94710138D01*
X156782306Y-94768146D01*
X156736133Y-94820585D01*
X156668940Y-94839737D01*
X156602059Y-94819521D01*
X156557542Y-94768146D01*
X156530492Y-94710138D01*
X156530491Y-94710136D01*
X156399969Y-94523729D01*
X156239065Y-94362825D01*
X156052658Y-94232303D01*
X156052656Y-94232302D01*
X155846421Y-94136132D01*
X155846412Y-94136129D01*
X155626621Y-94077237D01*
X155626617Y-94077236D01*
X155626616Y-94077236D01*
X155626615Y-94077235D01*
X155626610Y-94077235D01*
X155399926Y-94057403D01*
X155399922Y-94057403D01*
X155173237Y-94077235D01*
X155173226Y-94077237D01*
X154953435Y-94136129D01*
X154953426Y-94136132D01*
X154747191Y-94232302D01*
X154747189Y-94232303D01*
X154560782Y-94362825D01*
X154399878Y-94523729D01*
X154269356Y-94710136D01*
X154269355Y-94710138D01*
X154242306Y-94768146D01*
X154196133Y-94820585D01*
X154128940Y-94839737D01*
X154062059Y-94819521D01*
X154017542Y-94768146D01*
X153990492Y-94710138D01*
X153990491Y-94710136D01*
X153859969Y-94523729D01*
X153699065Y-94362825D01*
X153512658Y-94232303D01*
X153512656Y-94232302D01*
X153306421Y-94136132D01*
X153306412Y-94136129D01*
X153086621Y-94077237D01*
X153086617Y-94077236D01*
X153086616Y-94077236D01*
X153086615Y-94077235D01*
X153086610Y-94077235D01*
X152859926Y-94057403D01*
X152859922Y-94057403D01*
X152633237Y-94077235D01*
X152633226Y-94077237D01*
X152413435Y-94136129D01*
X152413426Y-94136132D01*
X152207191Y-94232302D01*
X152207189Y-94232303D01*
X152020782Y-94362825D01*
X151859878Y-94523729D01*
X151729356Y-94710136D01*
X151729355Y-94710138D01*
X151702306Y-94768146D01*
X151656133Y-94820585D01*
X151588940Y-94839737D01*
X151522059Y-94819521D01*
X151477542Y-94768146D01*
X151450492Y-94710138D01*
X151450491Y-94710136D01*
X151319969Y-94523729D01*
X151159065Y-94362825D01*
X150972658Y-94232303D01*
X150972656Y-94232302D01*
X150766421Y-94136132D01*
X150766412Y-94136129D01*
X150546621Y-94077237D01*
X150546617Y-94077236D01*
X150546616Y-94077236D01*
X150546615Y-94077235D01*
X150546610Y-94077235D01*
X150319926Y-94057403D01*
X150319922Y-94057403D01*
X150093237Y-94077235D01*
X150093226Y-94077237D01*
X149873435Y-94136129D01*
X149873426Y-94136132D01*
X149667191Y-94232302D01*
X149667189Y-94232303D01*
X149480782Y-94362825D01*
X149319878Y-94523729D01*
X149189356Y-94710136D01*
X149189355Y-94710138D01*
X149162306Y-94768146D01*
X149116133Y-94820585D01*
X149048940Y-94839737D01*
X148982059Y-94819521D01*
X148937542Y-94768146D01*
X148910492Y-94710138D01*
X148910491Y-94710136D01*
X148779969Y-94523729D01*
X148619065Y-94362825D01*
X148432658Y-94232303D01*
X148432656Y-94232302D01*
X148226421Y-94136132D01*
X148226412Y-94136129D01*
X148006621Y-94077237D01*
X148006617Y-94077236D01*
X148006616Y-94077236D01*
X148006615Y-94077235D01*
X148006610Y-94077235D01*
X147779926Y-94057403D01*
X147779922Y-94057403D01*
X147553237Y-94077235D01*
X147553226Y-94077237D01*
X147333435Y-94136129D01*
X147333426Y-94136132D01*
X147127191Y-94232302D01*
X147127189Y-94232303D01*
X146940782Y-94362825D01*
X146779878Y-94523729D01*
X146649356Y-94710136D01*
X146649355Y-94710138D01*
X146622306Y-94768146D01*
X146576133Y-94820585D01*
X146508940Y-94839737D01*
X146442059Y-94819521D01*
X146397542Y-94768146D01*
X146370492Y-94710138D01*
X146370491Y-94710136D01*
X146239969Y-94523729D01*
X146079065Y-94362825D01*
X145892658Y-94232303D01*
X145892656Y-94232302D01*
X145686421Y-94136132D01*
X145686412Y-94136129D01*
X145466621Y-94077237D01*
X145466617Y-94077236D01*
X145466616Y-94077236D01*
X145466615Y-94077235D01*
X145466610Y-94077235D01*
X145239926Y-94057403D01*
X145239922Y-94057403D01*
X145013237Y-94077235D01*
X145013226Y-94077237D01*
X144793435Y-94136129D01*
X144793426Y-94136132D01*
X144587191Y-94232302D01*
X144587189Y-94232303D01*
X144400782Y-94362825D01*
X144239878Y-94523729D01*
X144109356Y-94710136D01*
X144109355Y-94710138D01*
X144082306Y-94768146D01*
X144036133Y-94820585D01*
X143968940Y-94839737D01*
X143902059Y-94819521D01*
X143857542Y-94768146D01*
X143830492Y-94710138D01*
X143830491Y-94710136D01*
X143699969Y-94523729D01*
X143539065Y-94362825D01*
X143352658Y-94232303D01*
X143352656Y-94232302D01*
X143146421Y-94136132D01*
X143146412Y-94136129D01*
X142926621Y-94077237D01*
X142926617Y-94077236D01*
X142926616Y-94077236D01*
X142926615Y-94077235D01*
X142926610Y-94077235D01*
X142699926Y-94057403D01*
X142699922Y-94057403D01*
X142473237Y-94077235D01*
X142473226Y-94077237D01*
X142253435Y-94136129D01*
X142253426Y-94136132D01*
X142047191Y-94232302D01*
X142047189Y-94232303D01*
X141860782Y-94362825D01*
X141699878Y-94523729D01*
X141569356Y-94710136D01*
X141569355Y-94710138D01*
X141542306Y-94768146D01*
X141496133Y-94820585D01*
X141428940Y-94839737D01*
X141362059Y-94819521D01*
X141317542Y-94768146D01*
X141290492Y-94710138D01*
X141290491Y-94710136D01*
X141159969Y-94523729D01*
X140999065Y-94362825D01*
X140812658Y-94232303D01*
X140812656Y-94232302D01*
X140606421Y-94136132D01*
X140606412Y-94136129D01*
X140386621Y-94077237D01*
X140386617Y-94077236D01*
X140386616Y-94077236D01*
X140386615Y-94077235D01*
X140386610Y-94077235D01*
X140159926Y-94057403D01*
X140159922Y-94057403D01*
X139933237Y-94077235D01*
X139933226Y-94077237D01*
X139713435Y-94136129D01*
X139713426Y-94136132D01*
X139507191Y-94232302D01*
X139507189Y-94232303D01*
X139320782Y-94362825D01*
X139159878Y-94523729D01*
X139029356Y-94710136D01*
X139029355Y-94710138D01*
X138933185Y-94916373D01*
X138933182Y-94916382D01*
X138874290Y-95136173D01*
X138874288Y-95136184D01*
X138854456Y-95362869D01*
X138854456Y-95362872D01*
X129365000Y-95362872D01*
X129365000Y-83839000D01*
X129384685Y-83771961D01*
X129437489Y-83726206D01*
X129489000Y-83715000D01*
X135080000Y-83715000D01*
X135080000Y-79905000D01*
X136264341Y-79905000D01*
X136284936Y-80140403D01*
X136284938Y-80140413D01*
X136346094Y-80368655D01*
X136346096Y-80368659D01*
X136346097Y-80368663D01*
X136350000Y-80377032D01*
X136445965Y-80582830D01*
X136445967Y-80582834D01*
X136510434Y-80674901D01*
X136581501Y-80776396D01*
X136581506Y-80776402D01*
X136703430Y-80898326D01*
X136736915Y-80959649D01*
X136731931Y-81029341D01*
X136690059Y-81085274D01*
X136659083Y-81102189D01*
X136527669Y-81151203D01*
X136527664Y-81151206D01*
X136412455Y-81237452D01*
X136412452Y-81237455D01*
X136326206Y-81352664D01*
X136326202Y-81352671D01*
X136275908Y-81487517D01*
X136269501Y-81547116D01*
X136269500Y-81547135D01*
X136269500Y-83342870D01*
X136269501Y-83342876D01*
X136275908Y-83402483D01*
X136326202Y-83537328D01*
X136326206Y-83537335D01*
X136412452Y-83652544D01*
X136412455Y-83652547D01*
X136527664Y-83738793D01*
X136527671Y-83738797D01*
X136662517Y-83789091D01*
X136662516Y-83789091D01*
X136669444Y-83789835D01*
X136722127Y-83795500D01*
X138517872Y-83795499D01*
X138577483Y-83789091D01*
X138712331Y-83738796D01*
X138827546Y-83652546D01*
X138913796Y-83537331D01*
X138962810Y-83405916D01*
X139004681Y-83349984D01*
X139070145Y-83325566D01*
X139138418Y-83340417D01*
X139166673Y-83361569D01*
X139288599Y-83483495D01*
X139385384Y-83551265D01*
X139482165Y-83619032D01*
X139482167Y-83619033D01*
X139482170Y-83619035D01*
X139696337Y-83718903D01*
X139924592Y-83780063D01*
X140101034Y-83795500D01*
X140159999Y-83800659D01*
X140160000Y-83800659D01*
X140160001Y-83800659D01*
X140218966Y-83795500D01*
X140395408Y-83780063D01*
X140623663Y-83718903D01*
X140837830Y-83619035D01*
X141031401Y-83483495D01*
X141198495Y-83316401D01*
X141328425Y-83130842D01*
X141383002Y-83087217D01*
X141452500Y-83080023D01*
X141514855Y-83111546D01*
X141531575Y-83130842D01*
X141661281Y-83316082D01*
X141661505Y-83316401D01*
X141828599Y-83483495D01*
X141925384Y-83551265D01*
X142022165Y-83619032D01*
X142022167Y-83619033D01*
X142022170Y-83619035D01*
X142236337Y-83718903D01*
X142464592Y-83780063D01*
X142641034Y-83795500D01*
X142699999Y-83800659D01*
X142700000Y-83800659D01*
X142700001Y-83800659D01*
X142758966Y-83795500D01*
X142935408Y-83780063D01*
X143163663Y-83718903D01*
X143377830Y-83619035D01*
X143571401Y-83483495D01*
X143738495Y-83316401D01*
X143868425Y-83130842D01*
X143923002Y-83087217D01*
X143992500Y-83080023D01*
X144054855Y-83111546D01*
X144071575Y-83130842D01*
X144201281Y-83316082D01*
X144201505Y-83316401D01*
X144368599Y-83483495D01*
X144465384Y-83551265D01*
X144562165Y-83619032D01*
X144562167Y-83619033D01*
X144562170Y-83619035D01*
X144776337Y-83718903D01*
X145004592Y-83780063D01*
X145181034Y-83795500D01*
X145239999Y-83800659D01*
X145240000Y-83800659D01*
X145240001Y-83800659D01*
X145298966Y-83795500D01*
X145475408Y-83780063D01*
X145703663Y-83718903D01*
X145917830Y-83619035D01*
X146111401Y-83483495D01*
X146278495Y-83316401D01*
X146408425Y-83130842D01*
X146463002Y-83087217D01*
X146532500Y-83080023D01*
X146594855Y-83111546D01*
X146611575Y-83130842D01*
X146741281Y-83316082D01*
X146741505Y-83316401D01*
X146908599Y-83483495D01*
X147005384Y-83551265D01*
X147102165Y-83619032D01*
X147102167Y-83619033D01*
X147102170Y-83619035D01*
X147316337Y-83718903D01*
X147544592Y-83780063D01*
X147721034Y-83795500D01*
X147779999Y-83800659D01*
X147780000Y-83800659D01*
X147780001Y-83800659D01*
X147838966Y-83795500D01*
X148015408Y-83780063D01*
X148243663Y-83718903D01*
X148457830Y-83619035D01*
X148651401Y-83483495D01*
X148818495Y-83316401D01*
X148948425Y-83130842D01*
X149003002Y-83087217D01*
X149072500Y-83080023D01*
X149134855Y-83111546D01*
X149151575Y-83130842D01*
X149281281Y-83316082D01*
X149281505Y-83316401D01*
X149448599Y-83483495D01*
X149545384Y-83551265D01*
X149642165Y-83619032D01*
X149642167Y-83619033D01*
X149642170Y-83619035D01*
X149856337Y-83718903D01*
X150084592Y-83780063D01*
X150261034Y-83795500D01*
X150319999Y-83800659D01*
X150320000Y-83800659D01*
X150320001Y-83800659D01*
X150378966Y-83795500D01*
X150555408Y-83780063D01*
X150783663Y-83718903D01*
X150997830Y-83619035D01*
X151191401Y-83483495D01*
X151358495Y-83316401D01*
X151488425Y-83130842D01*
X151543002Y-83087217D01*
X151612500Y-83080023D01*
X151674855Y-83111546D01*
X151691575Y-83130842D01*
X151821281Y-83316082D01*
X151821505Y-83316401D01*
X151988599Y-83483495D01*
X152085384Y-83551265D01*
X152182165Y-83619032D01*
X152182167Y-83619033D01*
X152182170Y-83619035D01*
X152396337Y-83718903D01*
X152624592Y-83780063D01*
X152801034Y-83795500D01*
X152859999Y-83800659D01*
X152860000Y-83800659D01*
X152860001Y-83800659D01*
X152918966Y-83795500D01*
X153095408Y-83780063D01*
X153323663Y-83718903D01*
X153537830Y-83619035D01*
X153731401Y-83483495D01*
X153898495Y-83316401D01*
X154028425Y-83130842D01*
X154083002Y-83087217D01*
X154152500Y-83080023D01*
X154214855Y-83111546D01*
X154231575Y-83130842D01*
X154361281Y-83316082D01*
X154361505Y-83316401D01*
X154528599Y-83483495D01*
X154625384Y-83551265D01*
X154722165Y-83619032D01*
X154722167Y-83619033D01*
X154722170Y-83619035D01*
X154936337Y-83718903D01*
X155164592Y-83780063D01*
X155341034Y-83795500D01*
X155399999Y-83800659D01*
X155400000Y-83800659D01*
X155400001Y-83800659D01*
X155458966Y-83795500D01*
X155635408Y-83780063D01*
X155863663Y-83718903D01*
X156077830Y-83619035D01*
X156271401Y-83483495D01*
X156438495Y-83316401D01*
X156568425Y-83130842D01*
X156623002Y-83087217D01*
X156692500Y-83080023D01*
X156754855Y-83111546D01*
X156771575Y-83130842D01*
X156901281Y-83316082D01*
X156901505Y-83316401D01*
X157068599Y-83483495D01*
X157165384Y-83551265D01*
X157262165Y-83619032D01*
X157262167Y-83619033D01*
X157262170Y-83619035D01*
X157476337Y-83718903D01*
X157704592Y-83780063D01*
X157881034Y-83795500D01*
X157939999Y-83800659D01*
X157940000Y-83800659D01*
X157940001Y-83800659D01*
X157998966Y-83795500D01*
X158175408Y-83780063D01*
X158353407Y-83732369D01*
X158423257Y-83734032D01*
X158481119Y-83773195D01*
X158508623Y-83837423D01*
X158509500Y-83852144D01*
X158509500Y-84326951D01*
X158509387Y-84330696D01*
X158505642Y-84392603D01*
X158505642Y-84392605D01*
X158516821Y-84453612D01*
X158517384Y-84457313D01*
X158524859Y-84518870D01*
X158524860Y-84518874D01*
X158528451Y-84528343D01*
X158534474Y-84549946D01*
X158536304Y-84559930D01*
X158561759Y-84616490D01*
X158563189Y-84619941D01*
X158585182Y-84677930D01*
X158585183Y-84677931D01*
X158590936Y-84686266D01*
X158601961Y-84705813D01*
X158606120Y-84715055D01*
X158606124Y-84715060D01*
X158644371Y-84763878D01*
X158646591Y-84766896D01*
X158681812Y-84817924D01*
X158681816Y-84817928D01*
X158681817Y-84817929D01*
X158728250Y-84859064D01*
X158730941Y-84861598D01*
X163276295Y-89406951D01*
X167363105Y-93493761D01*
X167396590Y-93555084D01*
X167399424Y-93581442D01*
X167399424Y-94201197D01*
X167379739Y-94268236D01*
X167346548Y-94302772D01*
X167260787Y-94362822D01*
X167099875Y-94523733D01*
X166969356Y-94710136D01*
X166969355Y-94710138D01*
X166873185Y-94916373D01*
X166873182Y-94916382D01*
X166814290Y-95136173D01*
X166814288Y-95136184D01*
X166794456Y-95362869D01*
X166794456Y-95362872D01*
X166814288Y-95589557D01*
X166814290Y-95589568D01*
X166873182Y-95809359D01*
X166873185Y-95809368D01*
X166969355Y-96015603D01*
X166969356Y-96015605D01*
X167099878Y-96202012D01*
X167260782Y-96362916D01*
X167260785Y-96362918D01*
X167447190Y-96493439D01*
X167653428Y-96589610D01*
X167873232Y-96648506D01*
X168035154Y-96662672D01*
X168099922Y-96668339D01*
X168099924Y-96668339D01*
X168099926Y-96668339D01*
X168156597Y-96663380D01*
X168326616Y-96648506D01*
X168546420Y-96589610D01*
X168752658Y-96493439D01*
X168939063Y-96362918D01*
X169099971Y-96202010D01*
X169230492Y-96015605D01*
X169257542Y-95957595D01*
X169303714Y-95905156D01*
X169370907Y-95886004D01*
X169437789Y-95906219D01*
X169482306Y-95957596D01*
X169509353Y-96015599D01*
X169509356Y-96015605D01*
X169639878Y-96202012D01*
X169800782Y-96362916D01*
X169800785Y-96362918D01*
X169987190Y-96493439D01*
X170193428Y-96589610D01*
X170413232Y-96648506D01*
X170575154Y-96662672D01*
X170639922Y-96668339D01*
X170639924Y-96668339D01*
X170639926Y-96668339D01*
X170696597Y-96663380D01*
X170866616Y-96648506D01*
X171086420Y-96589610D01*
X171292658Y-96493439D01*
X171479063Y-96362918D01*
X171639971Y-96202010D01*
X171770492Y-96015605D01*
X171797542Y-95957595D01*
X171843714Y-95905156D01*
X171910907Y-95886004D01*
X171977789Y-95906219D01*
X172022306Y-95957596D01*
X172049353Y-96015599D01*
X172049356Y-96015605D01*
X172179878Y-96202012D01*
X172340782Y-96362916D01*
X172340785Y-96362918D01*
X172527190Y-96493439D01*
X172733428Y-96589610D01*
X172953232Y-96648506D01*
X173115154Y-96662672D01*
X173179922Y-96668339D01*
X173179924Y-96668339D01*
X173179926Y-96668339D01*
X173236597Y-96663380D01*
X173406616Y-96648506D01*
X173626420Y-96589610D01*
X173832658Y-96493439D01*
X174019063Y-96362918D01*
X174179971Y-96202010D01*
X174310492Y-96015605D01*
X174337542Y-95957595D01*
X174383714Y-95905156D01*
X174450907Y-95886004D01*
X174517789Y-95906219D01*
X174562306Y-95957596D01*
X174589353Y-96015599D01*
X174589356Y-96015605D01*
X174719878Y-96202012D01*
X174880782Y-96362916D01*
X174880785Y-96362918D01*
X175067190Y-96493439D01*
X175273428Y-96589610D01*
X175493232Y-96648506D01*
X175655154Y-96662672D01*
X175719922Y-96668339D01*
X175719924Y-96668339D01*
X175719926Y-96668339D01*
X175776597Y-96663380D01*
X175946616Y-96648506D01*
X176166420Y-96589610D01*
X176372658Y-96493439D01*
X176559063Y-96362918D01*
X176719971Y-96202010D01*
X176850492Y-96015605D01*
X176877542Y-95957595D01*
X176923714Y-95905156D01*
X176990907Y-95886004D01*
X177057789Y-95906219D01*
X177102306Y-95957596D01*
X177129353Y-96015599D01*
X177129356Y-96015605D01*
X177259878Y-96202012D01*
X177420782Y-96362916D01*
X177420785Y-96362918D01*
X177607190Y-96493439D01*
X177813428Y-96589610D01*
X178033232Y-96648506D01*
X178195154Y-96662672D01*
X178259922Y-96668339D01*
X178259924Y-96668339D01*
X178259926Y-96668339D01*
X178316597Y-96663380D01*
X178486616Y-96648506D01*
X178706420Y-96589610D01*
X178912658Y-96493439D01*
X179099063Y-96362918D01*
X179259971Y-96202010D01*
X179390492Y-96015605D01*
X179417542Y-95957595D01*
X179463714Y-95905156D01*
X179530907Y-95886004D01*
X179597789Y-95906219D01*
X179642306Y-95957596D01*
X179669353Y-96015599D01*
X179669356Y-96015605D01*
X179799878Y-96202012D01*
X179960782Y-96362916D01*
X179960785Y-96362918D01*
X180147190Y-96493439D01*
X180353428Y-96589610D01*
X180573232Y-96648506D01*
X180735154Y-96662672D01*
X180799922Y-96668339D01*
X180799924Y-96668339D01*
X180799926Y-96668339D01*
X180856597Y-96663380D01*
X181026616Y-96648506D01*
X181246420Y-96589610D01*
X181452658Y-96493439D01*
X181639063Y-96362918D01*
X181799971Y-96202010D01*
X181930492Y-96015605D01*
X181957542Y-95957595D01*
X182003714Y-95905156D01*
X182070907Y-95886004D01*
X182137789Y-95906219D01*
X182182306Y-95957596D01*
X182209353Y-96015599D01*
X182209356Y-96015605D01*
X182339878Y-96202012D01*
X182500782Y-96362916D01*
X182500785Y-96362918D01*
X182687190Y-96493439D01*
X182893428Y-96589610D01*
X183113232Y-96648506D01*
X183275154Y-96662672D01*
X183339922Y-96668339D01*
X183339924Y-96668339D01*
X183339926Y-96668339D01*
X183396597Y-96663380D01*
X183566616Y-96648506D01*
X183786420Y-96589610D01*
X183992658Y-96493439D01*
X184179063Y-96362918D01*
X184339971Y-96202010D01*
X184470492Y-96015605D01*
X184497542Y-95957595D01*
X184543714Y-95905156D01*
X184610907Y-95886004D01*
X184677789Y-95906219D01*
X184722306Y-95957596D01*
X184749353Y-96015599D01*
X184749356Y-96015605D01*
X184879878Y-96202012D01*
X185040782Y-96362916D01*
X185040785Y-96362918D01*
X185227190Y-96493439D01*
X185433428Y-96589610D01*
X185653232Y-96648506D01*
X185815154Y-96662672D01*
X185879922Y-96668339D01*
X185879924Y-96668339D01*
X185879926Y-96668339D01*
X185936597Y-96663380D01*
X186106616Y-96648506D01*
X186326420Y-96589610D01*
X186532658Y-96493439D01*
X186719063Y-96362918D01*
X186879971Y-96202010D01*
X187010492Y-96015605D01*
X187106663Y-95809367D01*
X187165559Y-95589563D01*
X187185392Y-95362871D01*
X187165559Y-95136179D01*
X187106663Y-94916375D01*
X187010492Y-94710137D01*
X186879971Y-94523732D01*
X186719063Y-94362824D01*
X186633300Y-94302772D01*
X186589675Y-94248195D01*
X186580424Y-94201197D01*
X186580424Y-93263123D01*
X186580537Y-93259378D01*
X186584282Y-93197470D01*
X186573099Y-93136447D01*
X186572537Y-93132750D01*
X186567580Y-93091927D01*
X186565064Y-93071204D01*
X186561472Y-93061732D01*
X186555445Y-93040110D01*
X186553619Y-93030147D01*
X186553619Y-93030145D01*
X186553551Y-93029995D01*
X186549433Y-93020846D01*
X186528148Y-92973552D01*
X186526741Y-92970155D01*
X186504742Y-92912146D01*
X186504740Y-92912144D01*
X186504740Y-92912142D01*
X186498986Y-92903807D01*
X186487958Y-92884253D01*
X186483804Y-92875023D01*
X186483742Y-92874944D01*
X186445545Y-92826188D01*
X186443351Y-92823206D01*
X186408107Y-92772147D01*
X186361674Y-92731011D01*
X186358980Y-92728475D01*
X185346819Y-91716314D01*
X185313334Y-91654991D01*
X185310500Y-91628633D01*
X185310500Y-83851625D01*
X185330185Y-83784586D01*
X185382989Y-83738831D01*
X185452147Y-83728887D01*
X185466593Y-83731850D01*
X185630000Y-83775634D01*
X185630000Y-82880501D01*
X185737685Y-82929680D01*
X185844237Y-82945000D01*
X185915763Y-82945000D01*
X186022315Y-82929680D01*
X186130000Y-82880501D01*
X186130000Y-83775633D01*
X186343483Y-83718433D01*
X186343492Y-83718429D01*
X186557578Y-83618600D01*
X186751082Y-83483105D01*
X186918105Y-83316082D01*
X187053600Y-83122578D01*
X187153429Y-82908492D01*
X187153432Y-82908486D01*
X187210636Y-82695000D01*
X186313686Y-82695000D01*
X186339493Y-82654844D01*
X186380000Y-82516889D01*
X186380000Y-82373111D01*
X186339493Y-82235156D01*
X186313686Y-82195000D01*
X187210636Y-82195000D01*
X187210635Y-82194999D01*
X187153432Y-81981513D01*
X187153429Y-81981507D01*
X187053600Y-81767422D01*
X187053599Y-81767420D01*
X186918113Y-81573926D01*
X186918108Y-81573920D01*
X186751078Y-81406890D01*
X186565405Y-81276879D01*
X186521780Y-81222302D01*
X186514588Y-81152804D01*
X186546110Y-81090449D01*
X186565406Y-81073730D01*
X186565842Y-81073425D01*
X186751401Y-80943495D01*
X186918495Y-80776401D01*
X187054035Y-80582830D01*
X187153903Y-80368663D01*
X187215063Y-80140408D01*
X187235659Y-79905000D01*
X187215063Y-79669592D01*
X187153903Y-79441337D01*
X187054035Y-79227171D01*
X187048425Y-79219158D01*
X186918494Y-79033597D01*
X186751402Y-78866506D01*
X186751395Y-78866501D01*
X186557834Y-78730967D01*
X186557830Y-78730965D01*
X186422679Y-78667943D01*
X186343663Y-78631097D01*
X186343659Y-78631096D01*
X186343655Y-78631094D01*
X186115413Y-78569938D01*
X186115403Y-78569936D01*
X185880001Y-78549341D01*
X185879999Y-78549341D01*
X185644596Y-78569936D01*
X185644586Y-78569938D01*
X185416344Y-78631094D01*
X185416335Y-78631098D01*
X185202171Y-78730964D01*
X185202169Y-78730965D01*
X185008597Y-78866505D01*
X184841505Y-79033597D01*
X184711575Y-79219158D01*
X184656998Y-79262783D01*
X184587500Y-79269977D01*
X184525145Y-79238454D01*
X184508425Y-79219158D01*
X184378494Y-79033597D01*
X184211402Y-78866506D01*
X184211395Y-78866501D01*
X184017834Y-78730967D01*
X184017830Y-78730965D01*
X183882679Y-78667943D01*
X183803663Y-78631097D01*
X183803659Y-78631096D01*
X183803655Y-78631094D01*
X183575413Y-78569938D01*
X183575403Y-78569936D01*
X183340001Y-78549341D01*
X183339999Y-78549341D01*
X183104596Y-78569936D01*
X183104586Y-78569938D01*
X182876344Y-78631094D01*
X182876335Y-78631098D01*
X182662171Y-78730964D01*
X182662169Y-78730965D01*
X182468597Y-78866505D01*
X182301505Y-79033597D01*
X182171575Y-79219158D01*
X182116998Y-79262783D01*
X182047500Y-79269977D01*
X181985145Y-79238454D01*
X181968425Y-79219158D01*
X181838494Y-79033597D01*
X181671402Y-78866506D01*
X181671395Y-78866501D01*
X181477834Y-78730967D01*
X181477830Y-78730965D01*
X181342679Y-78667943D01*
X181263663Y-78631097D01*
X181263659Y-78631096D01*
X181263655Y-78631094D01*
X181035413Y-78569938D01*
X181035403Y-78569936D01*
X180800001Y-78549341D01*
X180799999Y-78549341D01*
X180564596Y-78569936D01*
X180564586Y-78569938D01*
X180336344Y-78631094D01*
X180336335Y-78631098D01*
X180122171Y-78730964D01*
X180122169Y-78730965D01*
X179928597Y-78866505D01*
X179761505Y-79033597D01*
X179631575Y-79219158D01*
X179576998Y-79262783D01*
X179507500Y-79269977D01*
X179445145Y-79238454D01*
X179428425Y-79219158D01*
X179298494Y-79033597D01*
X179131402Y-78866506D01*
X179131395Y-78866501D01*
X178937834Y-78730967D01*
X178937830Y-78730965D01*
X178802679Y-78667943D01*
X178723663Y-78631097D01*
X178723659Y-78631096D01*
X178723655Y-78631094D01*
X178495413Y-78569938D01*
X178495403Y-78569936D01*
X178260001Y-78549341D01*
X178259999Y-78549341D01*
X178024596Y-78569936D01*
X178024586Y-78569938D01*
X177796344Y-78631094D01*
X177796335Y-78631098D01*
X177582171Y-78730964D01*
X177582169Y-78730965D01*
X177388597Y-78866505D01*
X177221505Y-79033597D01*
X177091575Y-79219158D01*
X177036998Y-79262783D01*
X176967500Y-79269977D01*
X176905145Y-79238454D01*
X176888425Y-79219158D01*
X176758494Y-79033597D01*
X176591402Y-78866506D01*
X176591395Y-78866501D01*
X176397834Y-78730967D01*
X176397830Y-78730965D01*
X176262679Y-78667943D01*
X176183663Y-78631097D01*
X176183659Y-78631096D01*
X176183655Y-78631094D01*
X175955413Y-78569938D01*
X175955403Y-78569936D01*
X175720001Y-78549341D01*
X175719999Y-78549341D01*
X175484596Y-78569936D01*
X175484586Y-78569938D01*
X175256344Y-78631094D01*
X175256335Y-78631098D01*
X175042171Y-78730964D01*
X175042169Y-78730965D01*
X174848597Y-78866505D01*
X174681505Y-79033597D01*
X174551575Y-79219158D01*
X174496998Y-79262783D01*
X174427500Y-79269977D01*
X174365145Y-79238454D01*
X174348425Y-79219158D01*
X174218494Y-79033597D01*
X174051402Y-78866506D01*
X174051395Y-78866501D01*
X173857834Y-78730967D01*
X173857830Y-78730965D01*
X173722679Y-78667943D01*
X173643663Y-78631097D01*
X173643659Y-78631096D01*
X173643655Y-78631094D01*
X173415413Y-78569938D01*
X173415403Y-78569936D01*
X173180001Y-78549341D01*
X173179999Y-78549341D01*
X172944596Y-78569936D01*
X172944586Y-78569938D01*
X172716344Y-78631094D01*
X172716335Y-78631098D01*
X172502171Y-78730964D01*
X172502169Y-78730965D01*
X172308597Y-78866505D01*
X172141505Y-79033597D01*
X172011575Y-79219158D01*
X171956998Y-79262783D01*
X171887500Y-79269977D01*
X171825145Y-79238454D01*
X171808425Y-79219158D01*
X171678494Y-79033597D01*
X171511402Y-78866506D01*
X171511395Y-78866501D01*
X171317834Y-78730967D01*
X171317830Y-78730965D01*
X171182679Y-78667943D01*
X171103663Y-78631097D01*
X171103659Y-78631096D01*
X171103655Y-78631094D01*
X170875413Y-78569938D01*
X170875403Y-78569936D01*
X170640001Y-78549341D01*
X170639999Y-78549341D01*
X170404596Y-78569936D01*
X170404586Y-78569938D01*
X170176344Y-78631094D01*
X170176335Y-78631098D01*
X169962171Y-78730964D01*
X169962169Y-78730965D01*
X169768597Y-78866505D01*
X169601505Y-79033597D01*
X169471575Y-79219158D01*
X169416998Y-79262783D01*
X169347500Y-79269977D01*
X169285145Y-79238454D01*
X169268425Y-79219158D01*
X169138494Y-79033597D01*
X168971402Y-78866506D01*
X168971395Y-78866501D01*
X168777834Y-78730967D01*
X168777830Y-78730965D01*
X168642679Y-78667943D01*
X168563663Y-78631097D01*
X168563659Y-78631096D01*
X168563655Y-78631094D01*
X168335413Y-78569938D01*
X168335403Y-78569936D01*
X168100001Y-78549341D01*
X168099999Y-78549341D01*
X167864596Y-78569936D01*
X167864586Y-78569938D01*
X167636344Y-78631094D01*
X167636335Y-78631098D01*
X167422171Y-78730964D01*
X167422169Y-78730965D01*
X167228597Y-78866505D01*
X167061505Y-79033597D01*
X166931575Y-79219158D01*
X166876998Y-79262783D01*
X166807500Y-79269977D01*
X166745145Y-79238454D01*
X166728425Y-79219158D01*
X166598494Y-79033597D01*
X166431402Y-78866506D01*
X166431395Y-78866501D01*
X166237834Y-78730967D01*
X166237830Y-78730965D01*
X166102679Y-78667943D01*
X166023663Y-78631097D01*
X166023659Y-78631096D01*
X166023655Y-78631094D01*
X165795413Y-78569938D01*
X165795403Y-78569936D01*
X165560001Y-78549341D01*
X165559999Y-78549341D01*
X165324596Y-78569936D01*
X165324586Y-78569938D01*
X165096344Y-78631094D01*
X165096335Y-78631098D01*
X164882171Y-78730964D01*
X164882169Y-78730965D01*
X164688597Y-78866505D01*
X164521505Y-79033597D01*
X164391575Y-79219158D01*
X164336998Y-79262783D01*
X164267500Y-79269977D01*
X164205145Y-79238454D01*
X164188425Y-79219158D01*
X164058494Y-79033597D01*
X163891402Y-78866506D01*
X163891395Y-78866501D01*
X163697834Y-78730967D01*
X163697830Y-78730965D01*
X163562679Y-78667943D01*
X163483663Y-78631097D01*
X163483659Y-78631096D01*
X163483655Y-78631094D01*
X163255413Y-78569938D01*
X163255403Y-78569936D01*
X163020001Y-78549341D01*
X163019999Y-78549341D01*
X162784596Y-78569936D01*
X162784586Y-78569938D01*
X162556344Y-78631094D01*
X162556335Y-78631098D01*
X162342171Y-78730964D01*
X162342169Y-78730965D01*
X162148597Y-78866505D01*
X161981505Y-79033597D01*
X161851575Y-79219158D01*
X161796998Y-79262783D01*
X161727500Y-79269977D01*
X161665145Y-79238454D01*
X161648425Y-79219158D01*
X161518494Y-79033597D01*
X161351402Y-78866506D01*
X161351395Y-78866501D01*
X161157834Y-78730967D01*
X161157830Y-78730965D01*
X161022679Y-78667943D01*
X160943663Y-78631097D01*
X160943659Y-78631096D01*
X160943655Y-78631094D01*
X160715413Y-78569938D01*
X160715403Y-78569936D01*
X160480001Y-78549341D01*
X160479999Y-78549341D01*
X160244596Y-78569936D01*
X160244586Y-78569938D01*
X160016344Y-78631094D01*
X160016335Y-78631098D01*
X159802171Y-78730964D01*
X159802169Y-78730965D01*
X159608597Y-78866505D01*
X159441505Y-79033597D01*
X159311575Y-79219158D01*
X159256998Y-79262783D01*
X159187500Y-79269977D01*
X159125145Y-79238454D01*
X159108425Y-79219158D01*
X158978494Y-79033597D01*
X158811402Y-78866506D01*
X158811395Y-78866501D01*
X158617834Y-78730967D01*
X158617830Y-78730965D01*
X158482679Y-78667943D01*
X158403663Y-78631097D01*
X158403659Y-78631096D01*
X158403655Y-78631094D01*
X158175413Y-78569938D01*
X158175403Y-78569936D01*
X157940001Y-78549341D01*
X157939999Y-78549341D01*
X157704596Y-78569936D01*
X157704586Y-78569938D01*
X157476344Y-78631094D01*
X157476335Y-78631098D01*
X157262171Y-78730964D01*
X157262169Y-78730965D01*
X157068597Y-78866505D01*
X156901505Y-79033597D01*
X156771575Y-79219158D01*
X156716998Y-79262783D01*
X156647500Y-79269977D01*
X156585145Y-79238454D01*
X156568425Y-79219158D01*
X156438494Y-79033597D01*
X156271402Y-78866506D01*
X156271395Y-78866501D01*
X156077834Y-78730967D01*
X156077830Y-78730965D01*
X155942679Y-78667943D01*
X155863663Y-78631097D01*
X155863659Y-78631096D01*
X155863655Y-78631094D01*
X155635413Y-78569938D01*
X155635403Y-78569936D01*
X155400001Y-78549341D01*
X155399999Y-78549341D01*
X155164596Y-78569936D01*
X155164586Y-78569938D01*
X154936344Y-78631094D01*
X154936335Y-78631098D01*
X154722171Y-78730964D01*
X154722169Y-78730965D01*
X154528597Y-78866505D01*
X154361505Y-79033597D01*
X154231575Y-79219158D01*
X154176998Y-79262783D01*
X154107500Y-79269977D01*
X154045145Y-79238454D01*
X154028425Y-79219158D01*
X153898494Y-79033597D01*
X153731402Y-78866506D01*
X153731395Y-78866501D01*
X153537834Y-78730967D01*
X153537830Y-78730965D01*
X153402679Y-78667943D01*
X153323663Y-78631097D01*
X153323659Y-78631096D01*
X153323655Y-78631094D01*
X153095413Y-78569938D01*
X153095403Y-78569936D01*
X152860001Y-78549341D01*
X152859999Y-78549341D01*
X152624596Y-78569936D01*
X152624586Y-78569938D01*
X152396344Y-78631094D01*
X152396335Y-78631098D01*
X152182171Y-78730964D01*
X152182169Y-78730965D01*
X151988597Y-78866505D01*
X151821505Y-79033597D01*
X151691575Y-79219158D01*
X151636998Y-79262783D01*
X151567500Y-79269977D01*
X151505145Y-79238454D01*
X151488425Y-79219158D01*
X151358494Y-79033597D01*
X151191402Y-78866506D01*
X151191395Y-78866501D01*
X150997834Y-78730967D01*
X150997830Y-78730965D01*
X150862679Y-78667943D01*
X150783663Y-78631097D01*
X150783659Y-78631096D01*
X150783655Y-78631094D01*
X150555413Y-78569938D01*
X150555403Y-78569936D01*
X150320001Y-78549341D01*
X150319999Y-78549341D01*
X150084596Y-78569936D01*
X150084586Y-78569938D01*
X149856344Y-78631094D01*
X149856335Y-78631098D01*
X149642171Y-78730964D01*
X149642169Y-78730965D01*
X149448597Y-78866505D01*
X149281505Y-79033597D01*
X149151575Y-79219158D01*
X149096998Y-79262783D01*
X149027500Y-79269977D01*
X148965145Y-79238454D01*
X148948425Y-79219158D01*
X148818494Y-79033597D01*
X148651402Y-78866506D01*
X148651395Y-78866501D01*
X148457834Y-78730967D01*
X148457830Y-78730965D01*
X148322679Y-78667943D01*
X148243663Y-78631097D01*
X148243659Y-78631096D01*
X148243655Y-78631094D01*
X148015413Y-78569938D01*
X148015403Y-78569936D01*
X147780001Y-78549341D01*
X147779999Y-78549341D01*
X147544596Y-78569936D01*
X147544586Y-78569938D01*
X147316344Y-78631094D01*
X147316335Y-78631098D01*
X147102171Y-78730964D01*
X147102169Y-78730965D01*
X146908597Y-78866505D01*
X146741505Y-79033597D01*
X146611575Y-79219158D01*
X146556998Y-79262783D01*
X146487500Y-79269977D01*
X146425145Y-79238454D01*
X146408425Y-79219158D01*
X146278494Y-79033597D01*
X146111402Y-78866506D01*
X146111395Y-78866501D01*
X145917834Y-78730967D01*
X145917830Y-78730965D01*
X145782679Y-78667943D01*
X145703663Y-78631097D01*
X145703659Y-78631096D01*
X145703655Y-78631094D01*
X145475413Y-78569938D01*
X145475403Y-78569936D01*
X145240001Y-78549341D01*
X145239999Y-78549341D01*
X145004596Y-78569936D01*
X145004586Y-78569938D01*
X144776344Y-78631094D01*
X144776335Y-78631098D01*
X144562171Y-78730964D01*
X144562169Y-78730965D01*
X144368597Y-78866505D01*
X144201505Y-79033597D01*
X144071575Y-79219158D01*
X144016998Y-79262783D01*
X143947500Y-79269977D01*
X143885145Y-79238454D01*
X143868425Y-79219158D01*
X143738494Y-79033597D01*
X143571402Y-78866506D01*
X143571395Y-78866501D01*
X143377834Y-78730967D01*
X143377830Y-78730965D01*
X143242679Y-78667943D01*
X143163663Y-78631097D01*
X143163659Y-78631096D01*
X143163655Y-78631094D01*
X142935413Y-78569938D01*
X142935403Y-78569936D01*
X142700001Y-78549341D01*
X142699999Y-78549341D01*
X142464596Y-78569936D01*
X142464586Y-78569938D01*
X142236344Y-78631094D01*
X142236335Y-78631098D01*
X142022171Y-78730964D01*
X142022169Y-78730965D01*
X141828597Y-78866505D01*
X141661505Y-79033597D01*
X141531575Y-79219158D01*
X141476998Y-79262783D01*
X141407500Y-79269977D01*
X141345145Y-79238454D01*
X141328425Y-79219158D01*
X141198494Y-79033597D01*
X141031402Y-78866506D01*
X141031395Y-78866501D01*
X140837834Y-78730967D01*
X140837830Y-78730965D01*
X140702679Y-78667943D01*
X140623663Y-78631097D01*
X140623659Y-78631096D01*
X140623655Y-78631094D01*
X140395413Y-78569938D01*
X140395403Y-78569936D01*
X140160001Y-78549341D01*
X140159999Y-78549341D01*
X139924596Y-78569936D01*
X139924586Y-78569938D01*
X139696344Y-78631094D01*
X139696335Y-78631098D01*
X139482171Y-78730964D01*
X139482169Y-78730965D01*
X139288597Y-78866505D01*
X139121505Y-79033597D01*
X138991575Y-79219158D01*
X138936998Y-79262783D01*
X138867500Y-79269977D01*
X138805145Y-79238454D01*
X138788425Y-79219158D01*
X138658494Y-79033597D01*
X138491402Y-78866506D01*
X138491395Y-78866501D01*
X138297834Y-78730967D01*
X138297830Y-78730965D01*
X138162679Y-78667943D01*
X138083663Y-78631097D01*
X138083659Y-78631096D01*
X138083655Y-78631094D01*
X137855413Y-78569938D01*
X137855403Y-78569936D01*
X137620001Y-78549341D01*
X137619999Y-78549341D01*
X137384596Y-78569936D01*
X137384586Y-78569938D01*
X137156344Y-78631094D01*
X137156335Y-78631098D01*
X136942171Y-78730964D01*
X136942169Y-78730965D01*
X136748597Y-78866505D01*
X136581505Y-79033597D01*
X136445965Y-79227169D01*
X136445964Y-79227171D01*
X136346098Y-79441335D01*
X136346094Y-79441344D01*
X136284938Y-79669586D01*
X136284936Y-79669596D01*
X136264341Y-79904999D01*
X136264341Y-79905000D01*
X135080000Y-79905000D01*
X135080000Y-78124000D01*
X135099685Y-78056961D01*
X135152489Y-78011206D01*
X135204000Y-78000000D01*
X188296000Y-78000000D01*
X188363039Y-78019685D01*
G37*
%TD.AperFunction*%
%TD*%
M02*
