M48
; DRILL file {KiCad 7.0.8} date 2024 January 29, Monday 19:48:50
; FORMAT={-:-/ absolute / inch / decimal}
; #@! TF.CreationDate,2024-01-29T19:48:50+09:00
; #@! TF.GenerationSoftware,Kicad,Pcbnew,7.0.8
; #@! TF.FileFunction,Plated,1,2,PTH
FMAT,2
INCH
; #@! TA.AperFunction,Plated,PTH,ComponentDrill
T1C0.0315
; #@! TA.AperFunction,Plated,PTH,ComponentDrill
T2C0.0394
; #@! TA.AperFunction,Plated,PTH,ComponentDrill
T3C0.0472
%
G90
G05
T1
X5.5181Y-3.7544
X5.5181Y-4.0544
X5.5181Y-4.4873
X5.6181Y-3.7544
X5.6181Y-4.0544
X5.6181Y-4.2044
X5.6181Y-4.4873
X5.7181Y-3.7544
X5.7181Y-4.0544
X5.7181Y-4.2044
X5.7181Y-4.4873
X5.8181Y-3.7544
X5.8181Y-4.0544
X5.8181Y-4.2044
X5.8181Y-4.4873
X5.9181Y-3.7544
X5.9181Y-4.0544
X5.9181Y-4.2044
X5.9181Y-4.4873
X6.0181Y-3.7544
X6.0181Y-4.0544
X6.0181Y-4.2044
X6.0181Y-4.4873
X6.1181Y-3.7544
X6.1181Y-4.0544
X6.1181Y-4.2044
X6.1181Y-4.4873
X6.2181Y-3.7544
X6.2181Y-4.0544
X6.2181Y-4.2044
X6.2181Y-4.4873
X6.3181Y-4.2044
X6.6181Y-3.7544
X6.6181Y-4.0544
X6.6181Y-4.4873
X6.7181Y-3.7544
X6.7181Y-4.0544
X6.7181Y-4.2044
X6.7181Y-4.4873
X6.8181Y-3.7544
X6.8181Y-4.0544
X6.8181Y-4.2044
X6.8181Y-4.4873
X6.9181Y-3.7544
X6.9181Y-4.0544
X6.9181Y-4.2044
X6.9181Y-4.4873
X7.0181Y-3.7544
X7.0181Y-4.0544
X7.0181Y-4.2044
X7.0181Y-4.4873
X7.1181Y-3.7544
X7.1181Y-4.0544
X7.1181Y-4.2044
X7.1181Y-4.4873
X7.2181Y-3.7544
X7.2181Y-4.0544
X7.2181Y-4.2044
X7.2181Y-4.4873
X7.3181Y-3.7544
X7.3181Y-4.0544
X7.3181Y-4.2044
X7.3181Y-4.4873
X7.4181Y-4.2044
T2
X5.4181Y-3.1459
X5.4181Y-3.2459
X5.5181Y-3.1459
X5.5181Y-3.2459
X5.6181Y-3.1459
X5.6181Y-3.2459
X5.7181Y-3.1459
X5.7181Y-3.2459
X5.8181Y-3.1459
X5.8181Y-3.2459
X5.9181Y-3.1459
X5.9181Y-3.2459
X6.0181Y-3.1459
X6.0181Y-3.2459
X6.1181Y-3.1459
X6.1181Y-3.2459
X6.2181Y-3.1459
X6.2181Y-3.2459
X6.3181Y-3.1459
X6.3181Y-3.2459
X6.4181Y-3.1459
X6.4181Y-3.2459
X6.5181Y-3.1459
X6.5181Y-3.2459
X6.6181Y-3.1459
X6.6181Y-3.2459
X6.7181Y-3.1459
X6.7181Y-3.2459
X6.8181Y-3.1459
X6.8181Y-3.2459
X6.9181Y-3.1459
X6.9181Y-3.2459
X7.0181Y-3.1459
X7.0181Y-3.2459
X7.1181Y-3.1459
X7.1181Y-3.2459
X7.2181Y-3.1459
X7.2181Y-3.2459
X7.3181Y-3.1459
X7.3181Y-3.2459
T3
X5.7181Y-4.8623
X6.2681Y-4.8623
X6.8181Y-4.8623
T0
M30
